{"glyphs":{"0":{"ha":714,"x_min":0,"x_max":0,"o":"m 690 475 b 343 951 690 739 535 951 b -3 475 153 951 -3 739 b 343 0 -3 213 153 0 b 690 475 535 0 690 213 z m 288 811 b 446 476 369 811 440 663 b 307 140 451 290 389 140 b 149 475 224 140 153 290 b 288 811 143 661 206 811 z "},"1":{"ha":415,"x_min":0,"x_max":0,"o":"m 43 833 b 17 732 -1 789 3 753 b 94 711 31 710 54 703 b 168 739 117 717 143 726 b 174 246 158 599 161 385 b 246 -8 186 86 210 22 b 358 4 283 -39 332 -36 b 394 271 385 44 388 122 b 388 765 400 419 410 639 b 247 938 365 892 313 936 b 43 833 183 940 89 878 z "},"2":{"ha":625,"x_min":0,"x_max":0,"o":"m 44 126 b 82 -8 32 79 38 19 b 307 -28 128 -35 214 -29 b 544 -14 400 -26 499 -31 b 567 60 590 1 583 36 b 478 100 551 82 528 93 b 289 108 428 107 351 110 b 186 107 226 106 178 99 b 338 192 194 115 261 138 b 553 429 414 246 501 332 b 600 722 604 525 619 633 b 447 917 579 811 526 881 b 189 932 369 953 265 957 b 33 810 111 906 60 853 b 18 713 7 765 6 732 b 75 696 31 694 58 689 b 114 747 92 703 99 721 b 196 818 131 772 158 806 b 319 788 235 829 285 818 b 372 631 353 756 372 703 b 308 397 372 557 354 465 b 138 250 263 331 189 289 b 44 126 86 211 57 175 z "},"3":{"ha":658,"x_min":0,"x_max":0,"o":"m 193 921 b 39 900 110 918 63 915 b 32 831 15 885 13 856 b 169 788 50 807 89 789 b 410 803 239 786 338 794 b 269 617 401 703 310 656 b 171 513 217 568 182 544 b 215 439 160 481 171 438 b 379 447 260 440 338 483 b 401 221 421 413 428 296 b 267 106 376 146 319 111 b 133 142 214 100 165 125 b 67 160 101 158 88 167 b 29 96 47 151 22 128 b 144 -3 36 64 75 24 b 403 -14 213 -29 311 -42 b 618 167 493 13 576 78 b 625 440 658 256 657 368 b 475 554 592 513 526 544 b 407 572 422 565 383 553 b 549 713 429 593 513 643 b 508 903 586 782 578 876 b 193 921 411 942 290 924 z "},"4":{"ha":728,"x_min":0,"x_max":0,"o":"m 490 983 b 314 854 454 983 413 961 b 25 414 211 743 46 543 b 264 210 3 286 124 231 b 439 200 321 201 382 199 b 518 -10 456 75 482 18 b 625 1 556 -39 601 -36 b 657 226 647 38 651 104 b 739 294 731 246 740 271 b 704 349 739 319 726 342 b 661 346 694 350 682 349 b 647 719 665 475 668 625 b 561 851 631 801 596 839 b 571 929 579 889 579 910 b 493 983 560 958 529 982 b 490 983 492 983 490 983 z m 428 651 b 429 318 421 557 422 428 b 251 322 358 314 288 313 b 290 471 190 339 221 382 b 428 651 329 522 381 589 z "},"5":{"ha":704,"x_min":0,"x_max":0,"o":"m 322 938 b 149 925 257 938 193 936 b 53 501 -14 886 15 611 b 197 381 78 432 132 367 b 385 438 264 393 342 485 b 390 135 428 392 435 208 b 194 124 346 63 250 100 b 101 149 138 147 122 156 b 69 78 81 140 54 117 b 256 -26 85 40 143 -11 b 619 69 368 -40 536 -17 b 675 411 704 156 704 333 b 478 551 646 489 557 546 b 231 488 399 557 315 522 b 225 804 207 608 206 688 b 494 794 308 797 418 790 b 642 843 583 800 624 818 b 635 914 661 867 660 897 b 465 935 610 931 560 932 b 322 938 424 936 372 938 z "},"6":{"ha":685,"x_min":0,"x_max":0,"o":"m 492 932 b 369 899 464 932 425 922 b 103 690 289 864 174 799 b 24 306 33 581 8 428 b 168 36 39 182 93 90 b 406 -29 242 -17 335 -32 b 565 31 476 -25 524 -4 b 663 175 607 64 643 110 b 667 399 683 240 688 325 b 518 561 644 472 596 533 b 290 567 447 588 353 586 b 343 706 301 624 318 668 b 479 824 381 761 439 799 b 547 876 519 847 540 858 b 522 928 556 893 549 918 b 492 932 515 931 504 932 z m 364 482 b 479 411 410 482 453 454 b 513 253 506 369 517 314 b 449 94 510 190 493 122 b 299 151 404 67 332 78 b 276 457 265 222 267 353 b 364 482 303 469 333 482 z "},"7":{"ha":557,"x_min":0,"x_max":0,"o":"m 194 931 b 28 908 110 928 56 925 b 19 836 -1 893 -3 861 b 163 788 40 811 85 793 b 314 790 207 785 261 786 b 94 268 226 628 142 439 b 99 8 56 121 68 50 b 218 -10 131 -33 181 -43 b 344 246 256 24 281 100 b 540 735 408 392 511 608 b 458 919 558 815 538 901 b 194 931 368 940 283 933 z "},"8":{"ha":694,"x_min":0,"x_max":0,"o":"m 356 951 b 229 932 313 953 269 946 b 100 844 182 914 135 886 b 44 688 64 801 42 747 b 82 572 46 644 61 606 b 160 492 104 539 131 514 b 36 349 110 460 61 414 b 24 207 17 303 14 254 b 86 82 33 160 54 118 b 329 -31 147 11 238 -26 b 578 57 417 -35 510 -7 b 651 172 611 88 638 128 b 656 313 667 217 668 265 b 542 469 636 381 592 432 b 497 499 526 481 513 489 b 524 519 506 504 515 511 b 615 697 571 563 611 624 b 581 829 618 744 606 790 b 481 919 556 868 521 899 b 356 951 442 940 399 950 z m 294 413 b 296 411 294 411 296 411 b 392 344 333 390 367 369 b 439 261 415 321 433 290 b 438 199 443 242 443 219 b 410 140 432 178 422 157 b 301 92 383 108 342 89 b 193 156 258 94 218 119 b 169 219 182 175 174 197 b 174 285 167 242 168 265 b 231 367 182 314 203 343 b 294 413 249 382 271 397 z m 389 822 b 443 808 408 822 428 817 b 479 772 458 800 471 786 b 490 728 488 758 490 742 b 451 651 489 704 475 675 b 368 596 431 631 400 613 b 304 633 343 607 321 619 b 267 675 289 646 275 660 b 254 717 258 689 254 704 b 274 771 253 733 260 754 b 331 813 286 788 307 803 b 389 822 350 819 369 824 z "},"9":{"ha":714,"x_min":0,"x_max":0,"o":"m 306 931 b 39 728 174 926 74 836 b 36 504 19 663 14 578 b 185 342 58 431 107 369 b 411 336 256 315 350 317 b 360 197 400 279 385 235 b 224 79 321 142 263 104 b 156 26 183 56 163 44 b 179 -25 147 10 154 -15 b 333 4 206 -35 251 -31 b 599 213 414 39 529 104 b 679 597 669 322 694 475 b 535 867 664 721 608 813 b 306 931 468 915 385 932 z m 404 751 b 426 446 438 681 436 550 b 339 421 400 433 369 421 b 224 492 293 421 250 449 b 189 651 196 533 186 589 b 254 808 193 713 210 781 b 404 751 314 844 385 793 z "},"\u0000":{"ha":0,"x_min":0,"x_max":0,"o":""}," ":{"ha":546,"x_min":0,"x_max":0,"o":""},"!":{"ha":456,"x_min":0,"x_max":0,"o":"m 251 133 b 361 321 301 138 339 179 b 379 858 383 461 390 703 b 299 1119 368 1014 339 1085 b 175 1113 258 1156 206 1154 b 125 826 146 1069 139 986 b 113 296 111 667 90 431 b 251 133 135 161 200 129 z m 264 65 b 121 18 217 78 150 61 b 135 -132 92 -26 100 -96 b 274 -153 169 -169 231 -174 b 339 -39 317 -132 340 -85 b 264 65 338 6 311 51 z "},"\"":{"ha":486,"x_min":0,"x_max":0,"o":"m 144 990 b 81 971 122 990 97 983 b 50 883 54 950 44 915 b 110 817 57 853 79 826 b 154 815 124 814 139 813 b 136 728 157 763 136 740 b 193 736 136 711 174 714 b 238 914 238 793 243 882 b 144 990 231 960 193 990 z m 349 986 b 285 967 326 986 301 979 b 254 879 258 946 249 911 b 314 813 261 849 283 822 b 358 811 328 810 343 808 b 340 724 361 758 340 736 b 397 732 340 707 378 710 b 442 910 442 789 447 878 b 349 986 435 956 397 986 z "},"#":{"ha":906,"x_min":0,"x_max":0,"o":"m 344 824 b 304 801 331 824 315 817 b 253 632 283 775 271 724 b 65 569 142 619 90 597 b 75 485 39 540 42 504 b 219 461 101 469 146 465 b 200 349 213 425 206 386 b 65 293 125 336 86 317 b 75 208 39 264 42 228 b 185 188 97 196 131 190 b 185 167 185 181 185 174 b 265 29 188 60 229 31 b 358 168 300 29 331 58 b 363 181 360 172 361 176 b 458 178 393 179 425 178 b 457 124 457 158 457 140 b 538 -14 460 17 501 -14 b 631 124 574 -14 603 15 b 644 182 636 142 640 161 b 721 190 672 183 699 186 b 844 292 826 210 850 257 b 693 363 839 326 806 351 b 675 364 688 363 682 364 b 688 461 681 397 683 431 b 721 467 699 463 711 464 b 844 568 826 486 850 532 b 694 638 839 603 806 628 b 663 756 692 699 681 733 b 576 758 638 786 601 789 b 538 644 561 738 550 703 b 424 643 500 646 461 644 b 390 799 424 729 411 774 b 344 824 376 815 361 824 z m 410 454 b 499 453 439 454 468 454 b 483 369 493 426 489 397 b 397 367 454 368 425 368 b 410 454 401 396 406 426 z "},"$":{"ha":624,"x_min":0,"x_max":0,"o":"m 353 258 b 368 242 358 253 364 247 b 406 167 394 213 407 188 b 379 121 404 146 394 131 b 350 107 371 114 361 110 b 353 258 351 150 353 200 z m 257 899 b 256 868 257 889 256 879 b 253 686 254 814 253 753 b 200 838 208 743 192 793 b 247 894 207 864 224 882 b 257 899 250 896 253 897 z m 338 1011 b 325 1063 333 1033 329 1050 b 294 1092 314 1088 304 1097 b 269 1039 285 1089 276 1071 b 265 1010 268 1031 267 1021 b 135 964 219 1003 176 988 b 17 738 61 910 21 833 b 124 471 13 647 49 558 b 256 346 164 426 208 385 b 258 239 256 308 257 274 b 263 144 260 204 261 174 b 228 218 249 165 238 190 b 206 271 221 239 213 256 b 128 315 182 307 157 322 b 89 299 113 314 100 308 b 68 247 76 289 69 271 b 86 157 67 221 72 192 b 151 63 99 122 121 92 b 264 4 183 35 221 15 b 276 1 268 3 272 3 b 293 -61 282 -29 288 -50 b 339 -46 311 -101 326 -96 b 344 -4 340 -36 343 -22 b 393 3 361 -3 376 -1 b 572 176 479 32 539 90 b 536 421 604 258 593 339 b 394 551 497 467 450 510 b 356 583 381 563 368 572 l 356 613 b 350 894 356 721 354 815 b 424 801 382 875 407 844 b 440 747 431 783 436 765 b 478 668 449 713 461 686 b 529 658 492 657 508 654 b 579 696 549 663 565 675 b 600 772 592 717 599 742 b 578 864 600 803 593 833 b 399 1001 546 929 486 975 b 338 1011 378 1007 357 1010 z "},"%":{"ha":1224,"x_min":0,"x_max":0,"o":"m 851 1039 b 701 861 818 1044 778 1008 b 453 288 625 715 515 457 b 386 -10 390 118 376 36 b 465 -28 396 -56 428 -67 b 622 268 503 11 543 100 b 865 835 701 438 819 686 b 851 1039 911 983 885 1032 z m 553 679 b 313 1010 553 863 446 1010 b 72 679 181 1010 72 863 b 313 350 72 497 181 350 b 553 679 446 350 553 497 z m 274 913 b 383 681 331 913 379 810 b 288 447 388 551 344 447 b 176 679 229 447 181 551 b 274 913 174 808 217 913 z m 1172 267 b 932 597 1172 449 1065 597 b 692 267 800 597 692 449 b 932 -64 692 85 800 -64 b 1172 267 1065 -64 1172 85 z m 893 500 b 1003 267 950 500 1000 397 b 907 33 1007 138 964 33 b 796 267 850 33 800 138 b 893 500 793 396 836 500 z "},"&":{"ha":831,"x_min":0,"x_max":0,"o":"m 185 915 b 164 718 151 856 147 783 b 242 529 179 651 210 590 b 271 476 250 511 260 493 b 128 286 214 419 158 360 b 128 90 101 225 99 151 b 274 -24 156 32 211 -10 b 572 83 397 -39 483 6 b 686 -21 572 83 613 1 b 771 93 801 -57 839 58 b 658 192 696 129 658 192 b 775 514 658 192 789 318 b 629 529 769 610 615 649 b 585 281 649 358 585 281 b 454 457 585 281 489 404 b 597 665 514 517 569 585 b 590 888 622 736 624 818 b 386 1021 556 963 479 1018 b 185 915 293 1025 221 981 z m 379 913 b 442 854 410 908 432 882 b 428 708 460 807 449 753 b 376 625 415 678 396 651 b 318 781 353 675 329 726 b 331 889 311 817 310 857 b 379 913 340 904 360 915 z m 368 361 b 500 175 397 308 467 226 b 325 254 401 35 303 142 b 368 361 333 293 350 329 z "},"'":{"ha":235,"x_min":0,"x_max":0,"o":"m 117 990 b 53 971 94 990 69 983 b 22 883 26 950 17 915 b 82 817 29 853 51 826 b 126 815 96 814 111 813 b 108 728 129 763 108 740 b 165 736 108 711 146 714 b 210 914 210 793 215 882 b 117 990 203 960 165 990 z "},"(":{"ha":463,"x_min":0,"x_max":0,"o":"m 325 1183 b 110 910 263 1161 172 1067 b 33 340 46 753 11 532 b 213 -114 56 147 136 -18 b 407 -224 290 -210 365 -236 b 436 -117 450 -212 460 -161 b 299 39 413 -74 356 -36 b 175 388 242 114 185 226 b 258 885 165 549 203 757 b 407 1106 314 1011 388 1058 b 325 1183 425 1154 389 1206 z "},")":{"ha":483,"x_min":0,"x_max":0,"o":"m 150 -222 b 365 51 213 -200 303 -106 b 442 622 429 210 464 429 b 263 1075 419 815 340 979 b 68 1186 185 1171 111 1199 b 39 1079 25 1174 15 1122 b 176 924 63 1035 119 999 b 300 574 233 849 290 735 b 217 78 310 413 272 204 b 68 -144 161 -50 88 -96 b 150 -222 50 -193 86 -243 z "},"*":{"ha":479,"x_min":0,"x_max":0,"o":"m 236 1038 b 188 996 213 1038 190 1019 b 199 890 182 960 197 926 b 188 894 197 888 190 894 b 119 940 165 911 146 931 b 71 935 104 947 85 946 b 57 860 49 918 39 882 b 114 828 69 842 93 835 b 183 810 138 822 161 819 b 183 801 188 808 188 804 b 131 756 169 782 147 771 b 89 699 113 740 93 724 b 154 644 83 665 122 633 b 201 690 176 651 190 672 b 243 760 215 714 226 739 b 254 760 246 765 251 765 b 289 697 269 742 276 718 b 340 643 301 676 315 653 b 415 683 371 633 404 654 b 404 732 421 700 417 719 b 315 799 379 761 344 776 b 311 813 313 803 304 808 b 372 844 329 828 351 835 b 428 885 392 856 414 867 b 425 939 439 900 438 924 b 361 963 413 958 385 972 b 297 906 335 951 318 925 b 286 896 293 901 290 899 b 297 957 289 917 296 936 b 281 1024 300 981 300 1008 b 236 1038 268 1035 251 1039 z "},"+":{"ha":631,"x_min":0,"x_max":0,"o":"m 304 753 b 264 724 288 753 272 743 b 250 546 250 689 254 626 b 211 543 236 546 224 544 b 46 490 125 535 72 517 b 60 411 21 463 24 426 b 236 397 93 397 157 401 b 238 271 232 350 231 306 b 332 176 251 204 299 175 b 394 288 365 178 385 211 b 401 382 399 315 400 347 b 511 385 443 379 481 379 b 606 479 579 399 607 446 b 494 542 604 513 571 532 b 397 549 467 546 433 547 b 396 571 397 557 396 564 b 343 736 388 657 369 711 b 304 753 331 747 317 753 z "},",":{"ha":296,"x_min":0,"x_max":0,"o":"m 186 163 b 110 157 160 169 132 167 b 54 68 75 140 54 104 b 104 -21 53 32 71 -4 b 153 -35 118 -29 135 -33 b 111 -128 142 -94 114 -114 b 175 -132 107 -147 149 -153 b 271 54 240 -81 268 17 b 186 163 274 108 239 151 z "},"-":{"ha":675,"x_min":0,"x_max":0,"o":"m 626 475 b 515 538 625 508 592 528 b 232 539 439 547 319 547 b 67 486 146 531 93 513 b 81 407 42 458 44 422 b 274 392 117 392 186 399 b 533 381 361 386 465 367 b 626 475 600 394 629 442 z "},".":{"ha":378,"x_min":0,"x_max":0,"o":"m 225 160 b 113 144 190 174 143 167 b 78 46 83 121 71 81 b 147 -31 85 10 111 -21 b 257 -10 183 -42 229 -31 b 288 76 285 11 293 43 b 225 160 281 111 260 146 z "},"/":{"ha":579,"x_min":0,"x_max":0,"o":"m 535 1107 b 361 901 497 1114 449 1072 b 74 239 274 732 144 435 b -3 -106 1 43 -14 -53 b 88 -126 7 -160 44 -172 b 269 215 131 -82 178 21 b 550 871 361 411 497 699 b 535 1107 603 1043 574 1099 z "},":":{"ha":378,"x_min":0,"x_max":0,"o":"m 225 647 b 113 631 190 661 143 654 b 78 532 83 608 71 568 b 147 457 85 497 111 467 b 257 478 183 446 229 457 b 288 564 285 499 293 531 b 225 647 281 597 260 632 z m 225 160 b 113 144 190 174 143 167 b 78 46 83 121 71 81 b 147 -31 85 10 111 -21 b 257 -10 183 -42 229 -31 b 288 76 285 11 293 43 b 225 160 281 111 260 146 z "},";":{"ha":296,"x_min":0,"x_max":0,"o":"m 190 647 b 78 631 156 661 108 654 b 43 532 49 608 36 568 b 113 457 50 497 76 467 b 222 478 149 446 194 457 b 253 564 250 499 258 531 b 190 647 246 597 225 632 z m 151 167 b 78 144 125 167 97 160 b 43 46 49 121 36 81 b 113 -31 50 10 76 -21 b 163 -33 128 -35 146 -36 b 142 -133 165 -93 142 -118 b 206 -124 142 -153 185 -150 b 258 79 257 -58 264 43 b 151 167 250 132 207 167 z "},"<":{"ha":756,"x_min":0,"x_max":0,"o":"m 419 799 b 135 607 326 749 206 668 b 42 469 63 547 42 507 b 135 332 42 433 63 393 b 419 142 206 272 326 192 b 618 79 513 92 576 72 b 653 160 661 86 681 121 b 467 303 625 197 551 239 b 246 469 394 358 314 431 b 467 638 314 510 394 582 b 653 781 551 701 625 743 b 611 858 681 819 661 854 b 419 799 560 863 501 842 z "},"=":{"ha":688,"x_min":0,"x_max":0,"o":"m 615 613 b 504 676 614 646 581 667 b 221 676 428 686 307 686 b 56 624 135 668 82 651 b 69 546 31 597 33 561 b 263 531 106 531 175 536 b 521 519 350 524 454 506 b 615 613 589 533 617 579 z m 615 349 b 504 413 614 382 581 403 b 221 413 428 422 307 422 b 56 360 135 404 82 388 b 69 282 31 333 33 297 b 263 267 106 267 175 272 b 521 256 350 260 454 242 b 615 349 589 269 617 315 z "},">":{"ha":756,"x_min":0,"x_max":0,"o":"m 288 799 b 97 858 206 842 147 863 b 54 781 47 854 26 819 b 240 638 82 743 156 701 b 463 469 313 582 393 510 b 240 303 393 431 313 358 b 54 160 156 239 82 197 b 89 79 26 121 47 86 b 288 142 131 72 194 92 b 574 332 381 192 501 272 b 665 469 644 393 665 433 b 574 607 665 507 644 547 b 288 799 501 668 381 749 z "},"?":{"ha":689,"x_min":0,"x_max":0,"o":"m 82 168 b 193 147 106 125 163 119 b 272 279 225 176 229 240 b 465 385 314 318 393 335 b 636 622 538 435 603 518 b 639 951 669 725 669 850 b 461 1174 608 1053 547 1132 b 189 1190 376 1215 268 1218 b 36 1051 110 1161 60 1101 b 28 943 11 1003 13 964 b 89 924 43 921 72 917 b 126 982 106 932 111 953 b 206 1061 140 1011 167 1049 b 338 1026 246 1074 299 1063 b 404 854 375 990 399 932 b 338 599 408 776 394 681 b 125 372 281 517 181 447 b 82 168 69 296 58 213 z m 204 65 b 61 18 157 78 90 61 b 75 -132 32 -26 40 -96 b 214 -153 110 -169 171 -174 b 279 -39 257 -132 281 -85 b 204 65 278 6 251 51 z "},"@":{"ha":1061,"x_min":0,"x_max":0,"o":"m 582 951 b 397 922 519 951 456 942 b 106 678 271 881 167 797 b 63 267 43 558 25 403 b 310 -57 100 131 194 14 b 647 -144 426 -126 564 -151 b 746 -71 729 -137 754 -99 b 640 -12 739 -44 696 -28 b 438 51 583 3 513 17 b 238 232 361 85 281 139 b 221 561 194 325 188 456 b 424 783 253 667 322 744 b 738 769 524 821 654 818 b 871 515 821 721 857 626 b 853 208 883 406 875 281 b 742 326 832 136 735 146 b 753 571 746 408 765 508 b 665 664 739 633 697 660 b 617 629 644 667 628 658 b 574 639 606 632 592 636 b 400 611 526 646 453 650 b 308 411 347 572 314 490 b 368 207 301 331 322 253 b 539 172 414 161 486 147 b 614 253 569 186 594 214 b 1000 219 676 1 918 -6 b 1033 622 1040 326 1067 489 b 789 910 1001 754 908 857 b 582 951 725 938 654 950 z m 563 610 b 610 601 579 610 596 606 b 606 578 608 594 607 586 b 600 475 603 550 600 514 b 557 233 589 382 578 274 b 467 344 528 181 481 253 b 508 586 453 435 472 544 b 563 610 525 604 543 610 z "},"A":{"ha":740,"x_min":0,"x_max":0,"o":"m 386 1011 b 188 846 317 1010 244 953 b 29 181 93 665 44 344 b 61 1 15 17 36 8 b 138 11 88 -6 118 -11 b 196 251 157 35 167 85 b 217 375 201 288 210 331 b 254 374 228 375 240 375 b 419 371 301 371 364 368 b 469 169 436 294 453 224 b 565 11 503 53 529 22 b 675 46 601 1 646 14 b 696 314 704 79 718 133 b 521 933 675 494 619 800 b 386 1011 481 988 433 1013 z m 321 826 b 367 638 338 828 347 747 b 392 507 374 597 382 553 b 239 500 339 507 282 504 b 301 790 261 621 285 736 b 321 826 308 814 315 826 z "},"B":{"ha":767,"x_min":0,"x_max":0,"o":"m 482 999 b 435 993 467 999 451 997 b 267 832 372 976 311 926 b 144 939 238 924 185 944 b 53 767 99 933 67 894 b 58 279 38 638 42 419 b 142 47 75 139 103 76 b 251 58 179 17 226 19 b 256 65 253 61 254 64 b 335 13 274 44 299 26 b 576 24 401 -11 500 -14 b 726 228 653 60 706 136 b 699 494 749 321 739 429 b 526 582 657 558 583 579 b 450 576 471 583 431 568 b 588 685 468 585 544 617 b 610 919 631 753 640 856 b 482 999 585 971 536 997 z m 435 928 b 476 847 463 928 479 893 b 397 664 472 792 438 718 b 293 560 363 618 322 585 b 306 669 296 599 300 636 b 415 924 329 824 378 903 b 435 928 422 926 429 928 z m 424 504 b 507 467 454 504 486 493 b 528 258 543 421 547 322 b 419 146 508 193 465 160 b 300 161 375 132 328 136 b 276 196 290 171 282 183 b 286 343 281 233 283 281 b 290 446 288 374 289 410 b 354 490 306 460 325 478 b 424 504 374 500 399 506 z "},"C":{"ha":717,"x_min":0,"x_max":0,"o":"m 590 717 b 618 660 597 681 601 668 b 682 664 633 653 663 653 b 708 746 703 676 715 700 b 611 904 703 790 679 857 b 326 957 542 951 429 981 b 76 743 224 932 131 853 b 26 361 22 632 6 489 b 189 61 46 235 104 124 b 474 6 274 -1 386 -17 b 661 144 563 29 628 90 b 682 268 694 197 697 242 b 618 290 668 293 636 299 b 574 222 599 281 592 257 b 482 129 556 188 525 143 b 343 189 438 114 382 128 b 283 474 304 249 283 357 b 354 779 283 589 304 713 b 531 832 404 846 485 856 b 590 717 575 808 585 751 z "},"D":{"ha":738,"x_min":0,"x_max":0,"o":"m 414 1025 b 328 996 382 1025 353 1015 b 243 851 289 965 263 910 b 113 989 215 969 156 996 b 28 801 67 982 40 940 b 35 272 17 661 21 425 b 111 19 49 119 72 53 b 233 31 151 -14 207 -11 b 239 42 235 35 238 38 b 363 -4 269 18 308 -4 b 624 164 442 -6 554 36 b 706 660 694 292 721 503 b 554 974 689 815 629 915 b 414 1025 510 1007 460 1026 z m 382 881 b 421 860 396 881 408 872 b 476 617 454 821 474 736 b 435 256 479 497 465 342 b 315 156 404 168 357 151 b 243 185 288 158 263 169 b 249 347 247 224 247 278 b 249 350 249 349 249 350 b 301 742 261 469 278 638 b 382 881 325 844 356 881 z "},"E":{"ha":538,"x_min":0,"x_max":0,"o":"m 368 1022 b 210 1015 314 1022 254 1019 b 93 974 140 1007 108 994 b 85 933 85 961 81 946 b 65 826 76 910 71 875 b 53 368 54 713 50 514 b 96 76 56 224 64 132 b 251 -3 126 21 181 3 b 467 18 322 -8 410 0 b 554 89 522 36 547 64 b 529 143 561 113 549 132 b 456 149 508 153 481 156 b 383 119 431 143 410 126 b 301 136 356 113 321 115 b 278 303 282 158 278 200 b 281 440 278 342 279 390 b 403 450 325 439 372 440 b 461 524 453 465 463 499 b 390 569 458 549 442 564 b 283 574 361 574 322 575 b 285 674 283 610 285 644 b 272 871 285 779 282 828 b 267 890 271 878 269 885 b 471 899 336 888 419 886 b 542 972 531 914 544 949 b 454 1018 539 997 519 1013 b 368 1022 431 1021 400 1022 z "},"F":{"ha":513,"x_min":0,"x_max":0,"o":"m 343 1021 b 242 1013 310 1021 275 1018 b 97 926 182 1003 128 983 b 54 629 67 871 57 778 b 67 165 53 482 56 281 b 126 4 79 49 97 18 b 221 14 156 -10 193 -7 b 274 118 247 35 264 74 b 286 319 283 163 286 211 b 283 449 286 357 285 401 b 421 458 333 447 385 449 b 486 538 476 475 489 511 b 406 588 483 564 465 581 b 281 590 372 592 326 592 b 279 697 281 629 279 667 b 303 867 279 801 283 844 b 396 886 322 888 357 890 b 506 878 435 883 476 875 b 551 913 533 881 547 893 b 532 976 557 932 554 957 b 418 1017 511 996 471 1010 b 343 1021 394 1019 369 1021 z "},"G":{"ha":738,"x_min":0,"x_max":0,"o":"m 418 1011 b 314 996 385 1011 349 1007 b 71 763 213 965 121 882 b 42 350 21 642 14 482 b 224 50 69 217 132 110 b 525 22 315 -10 438 -22 b 688 272 611 67 661 169 b 707 439 703 331 707 390 b 578 583 706 461 693 583 b 471 549 533 583 489 571 b 483 492 451 528 458 500 b 569 476 508 485 551 499 b 581 450 575 469 579 461 b 583 365 585 425 586 397 b 492 165 578 294 542 207 b 336 188 443 124 378 129 b 272 483 293 247 274 361 b 343 804 272 604 293 735 b 518 869 394 875 475 885 b 575 785 563 854 569 813 b 601 735 581 757 585 743 b 665 739 617 728 646 726 b 692 821 686 751 699 776 b 590 967 685 864 658 926 b 418 1011 546 994 485 1011 z "},"H":{"ha":769,"x_min":0,"x_max":0,"o":"m 138 993 b 61 846 103 993 75 963 b 60 279 44 706 46 443 b 136 17 74 115 97 49 b 251 29 174 -15 225 -12 b 288 306 278 71 282 151 b 293 461 290 351 292 406 b 467 461 347 458 414 456 b 476 279 469 394 472 332 b 551 17 490 115 514 49 b 668 29 590 -15 640 -12 b 704 306 694 71 699 151 b 697 815 711 458 721 685 b 575 990 675 946 621 982 b 476 846 529 1000 493 985 b 465 599 469 782 465 693 b 296 596 415 601 350 600 b 281 815 294 678 292 757 b 158 990 258 946 204 982 b 138 993 151 993 144 993 z "},"I":{"ha":372,"x_min":0,"x_max":0,"o":"m 167 990 b 61 846 118 1000 79 985 b 60 279 43 706 46 443 b 142 17 75 115 101 49 b 268 29 183 -15 239 -12 b 308 306 297 71 301 151 b 301 815 315 458 325 685 b 167 990 276 946 217 981 z "},"J":{"ha":513,"x_min":0,"x_max":0,"o":"m 274 999 b 210 892 240 976 221 936 b 200 690 199 847 196 799 b 214 307 204 583 215 417 b 171 139 211 196 196 144 b 28 174 146 135 67 176 b -33 106 -11 171 -29 135 b 7 32 -37 75 -26 51 b 153 -4 40 13 97 -4 b 313 53 208 -4 263 11 b 436 314 364 94 410 163 b 460 835 463 465 469 701 b 390 1011 450 968 425 999 b 274 999 354 1024 307 1019 z "},"K":{"ha":708,"x_min":0,"x_max":0,"o":"m 167 1006 b 143 1003 158 1006 150 1004 b 54 807 94 990 65 949 b 60 274 42 667 46 428 b 138 18 75 119 100 50 b 256 31 176 -15 228 -12 b 288 207 275 63 282 117 b 386 144 318 182 351 161 b 614 129 467 107 554 103 b 710 253 675 157 710 215 b 649 300 708 290 671 308 b 597 243 628 292 621 257 b 456 288 572 229 531 236 b 340 379 422 311 381 344 b 507 589 392 428 460 508 b 600 836 560 679 586 769 b 597 968 614 903 615 946 b 518 971 579 992 544 996 b 450 821 493 947 479 894 b 331 574 421 746 376 650 b 303 531 321 558 313 544 b 289 863 307 654 306 781 b 167 1006 265 974 213 1006 z "},"L":{"ha":579,"x_min":0,"x_max":0,"o":"m 201 1001 b 101 1011 172 1022 132 1025 b 39 849 71 997 50 965 b 25 379 26 731 22 528 b 71 79 28 231 38 135 b 235 -3 104 22 160 3 b 464 18 311 -8 404 0 b 557 90 524 38 550 67 b 531 146 564 115 551 135 b 453 153 508 157 479 160 b 375 124 426 146 404 131 b 289 140 346 117 310 118 b 264 311 268 163 264 206 b 271 692 264 415 269 583 b 258 896 272 801 268 850 b 201 1001 247 940 231 979 z "},"M":{"ha":903,"x_min":0,"x_max":0,"o":"m 693 1001 b 685 1001 690 1001 688 1001 b 607 932 663 1004 638 989 b 456 540 561 844 503 658 b 447 519 453 533 450 526 b 442 535 444 525 443 529 b 303 871 404 642 353 786 b 251 938 285 899 268 921 b 167 990 225 971 194 985 b 60 844 118 1000 79 983 b 60 279 42 706 44 443 b 142 17 75 115 101 49 b 268 29 183 -15 239 -12 b 308 304 297 71 301 151 b 313 438 310 344 311 390 b 353 357 326 407 339 378 b 456 290 390 293 429 279 b 535 347 479 293 507 310 b 610 496 561 382 586 436 b 619 288 611 421 614 347 b 690 26 632 124 656 58 b 800 39 726 -6 775 -3 b 832 243 826 81 829 161 b 843 521 835 325 839 407 b 831 865 847 633 853 776 b 713 1000 807 954 756 990 b 693 1001 706 1001 699 1001 z "},"N":{"ha":732,"x_min":0,"x_max":0,"o":"m 536 1008 b 446 854 493 1008 461 989 b 436 488 436 764 433 622 b 322 790 396 600 354 713 b 286 872 308 824 296 850 b 167 990 257 956 208 982 b 61 844 118 1000 79 983 b 60 279 43 706 46 443 b 143 17 75 115 101 49 b 268 29 183 -15 239 -12 b 308 304 299 71 301 151 b 314 449 310 349 313 397 b 438 132 356 329 400 208 b 553 7 490 25 529 8 b 626 39 582 6 610 11 b 664 322 653 81 656 161 b 664 858 671 485 685 728 b 540 1008 642 989 586 1007 b 536 1008 539 1008 538 1008 z "},"O":{"ha":769,"x_min":0,"x_max":0,"o":"m 25 510 b 378 0 25 228 183 0 b 731 510 572 0 731 228 b 378 1021 731 792 572 1021 b 25 510 183 1019 25 792 z m 435 871 b 576 510 518 871 582 708 b 415 150 571 311 499 150 b 274 511 332 150 268 311 b 435 871 279 711 351 871 z "},"P":{"ha":732,"x_min":0,"x_max":0,"o":"m 447 1013 b 365 993 418 1013 390 1006 b 271 861 321 968 292 918 b 142 974 240 957 183 979 b 56 788 94 967 67 925 b 61 267 43 650 47 417 b 139 17 76 117 100 49 b 256 31 176 -15 229 -12 b 293 308 283 72 286 154 b 294 340 293 319 294 331 b 482 296 349 310 417 286 b 663 446 554 307 622 364 b 706 732 703 528 717 636 b 589 964 693 829 656 914 b 447 1013 547 996 496 1013 z m 417 907 b 465 872 433 906 450 892 b 510 646 497 825 514 743 b 432 407 506 547 479 433 b 299 460 390 382 333 429 b 299 467 299 463 299 465 b 356 832 315 546 326 739 b 417 907 372 888 394 907 z "},"Q":{"ha":775,"x_min":0,"x_max":0,"o":"m 378 1025 b 25 515 183 1025 25 797 b 378 6 25 233 183 6 b 551 71 440 6 500 29 b 586 26 563 54 575 39 b 708 -1 638 -28 683 -19 b 708 117 733 17 739 46 b 660 211 696 143 679 176 b 731 515 704 296 731 401 b 378 1025 731 797 572 1025 z m 435 875 b 576 515 518 875 582 714 b 560 369 575 464 569 414 b 447 464 511 436 478 461 b 383 419 417 467 388 449 b 439 272 379 390 400 350 b 481 189 451 247 465 218 b 415 156 461 168 439 156 b 274 517 332 156 268 317 b 435 875 279 717 351 875 z "},"R":{"ha":711,"x_min":0,"x_max":0,"o":"m 413 1013 b 339 993 386 1013 361 1006 b 260 881 303 971 278 929 b 136 978 229 974 175 988 b 54 788 90 967 65 925 b 60 267 43 650 47 417 b 131 17 74 117 96 49 b 239 31 165 -15 214 -12 b 269 211 257 63 264 117 b 378 142 301 183 339 158 b 606 126 458 104 546 100 b 701 247 667 153 701 210 b 640 293 700 283 663 301 b 589 238 619 285 613 251 b 447 281 564 224 522 229 b 399 315 432 290 417 303 b 440 310 413 311 426 310 b 611 446 511 307 574 364 b 650 732 647 528 661 636 b 543 964 639 829 604 914 b 413 1013 506 996 458 1013 z m 385 907 b 429 872 401 906 417 892 b 471 646 460 825 475 743 b 400 407 467 547 442 433 b 281 457 363 383 313 426 b 282 494 281 469 282 482 b 329 832 294 585 306 749 b 385 907 344 888 365 907 z "},"S":{"ha":624,"x_min":0,"x_max":0,"o":"m 424 801 b 478 668 444 750 450 692 b 579 696 504 644 553 656 b 578 864 606 735 608 803 b 399 1001 547 925 483 979 b 135 964 314 1022 207 1013 b 17 738 61 915 21 828 b 124 471 14 649 49 557 b 368 242 200 385 317 303 b 379 121 421 182 408 142 b 274 129 350 100 304 97 b 206 271 243 163 226 232 b 128 315 183 310 157 319 b 68 247 100 311 71 296 b 151 63 65 199 90 117 b 393 3 213 8 310 -18 b 572 176 475 25 543 96 b 536 421 603 256 596 343 b 294 638 476 499 367 567 b 200 838 221 710 188 786 b 319 907 213 889 271 915 b 424 801 367 897 403 853 z "},"T":{"ha":642,"x_min":0,"x_max":0,"o":"m 282 1007 b 118 996 221 1007 161 1004 b 18 908 32 978 14 938 b 142 854 22 879 50 861 b 228 850 167 851 196 850 b 228 846 228 849 228 847 b 226 279 211 706 214 443 b 300 17 240 115 264 49 b 411 29 336 -15 385 -12 b 446 306 438 71 440 151 b 440 815 453 458 463 685 b 432 854 438 829 435 842 b 489 858 451 856 471 857 b 654 907 589 867 633 882 b 646 979 675 931 674 963 b 460 1003 618 997 564 999 b 282 1007 408 1004 344 1007 z "},"U":{"ha":750,"x_min":0,"x_max":0,"o":"m 586 1019 b 568 1017 579 1019 574 1018 b 506 942 549 1010 526 990 b 494 910 503 933 499 924 b 494 910 494 910 494 910 b 474 822 489 888 482 860 b 353 228 442 665 397 353 b 258 314 308 101 264 163 b 282 840 253 465 286 707 b 196 1010 278 975 235 1001 b 101 971 158 1017 124 1006 b 57 758 78 938 67 879 b 53 324 46 638 36 451 b 181 69 69 194 113 121 b 413 132 250 19 343 -10 b 469 303 433 175 453 236 b 544 25 482 154 507 67 b 657 47 583 -18 635 -15 b 679 397 678 108 669 228 b 700 897 689 565 717 783 b 586 1019 686 993 625 1019 z "},"V":{"ha":721,"x_min":0,"x_max":0,"o":"m 265 838 b 168 996 231 954 204 986 b 58 961 133 1006 88 993 b 38 693 29 928 17 874 b 214 74 60 514 115 207 b 546 163 311 -58 451 -18 b 704 826 642 342 690 663 b 672 1006 719 990 699 999 b 597 996 647 1013 617 1018 b 539 757 576 974 568 922 b 433 218 510 590 463 310 b 368 369 404 125 393 221 b 265 838 342 519 300 721 z "},"W":{"ha":1121,"x_min":0,"x_max":0,"o":"m 139 1011 b 58 972 110 1011 79 999 b 39 701 32 939 19 883 b 203 75 60 519 111 210 b 504 157 294 -58 426 -18 b 564 358 529 213 549 283 b 654 75 583 246 613 139 b 956 163 736 -58 868 -18 b 1104 825 1044 342 1090 661 b 1074 1004 1117 989 1099 997 b 1003 993 1050 1011 1021 1017 b 950 785 985 971 975 919 b 856 343 925 650 883 433 b 799 406 828 251 817 288 b 736 843 782 524 760 726 b 654 1000 713 960 688 990 b 551 965 621 1011 579 999 b 519 801 531 940 518 901 b 511 721 517 779 514 753 b 442 229 496 574 469 314 b 356 379 415 144 389 233 b 251 849 322 526 283 731 b 161 1008 219 967 194 997 b 139 1011 154 1010 146 1011 z "},"X":{"ha":688,"x_min":0,"x_max":0,"o":"m 550 1006 b 438 858 521 994 496 967 b 361 725 417 821 389 775 b 286 857 333 775 308 821 b 149 1004 214 976 182 997 b 54 983 115 1013 82 1007 b 39 811 26 960 4 917 b 210 456 69 721 140 585 b 143 332 186 411 163 368 b 24 64 60 176 29 107 b 56 -3 19 21 39 1 b 100 14 74 -7 86 3 b 275 251 142 61 185 110 b 300 290 283 264 292 276 b 464 63 356 190 407 108 b 667 19 539 1 624 1 b 690 122 710 38 711 72 b 547 376 668 172 625 236 b 456 547 519 426 488 486 b 576 771 503 629 546 708 b 625 986 644 913 643 960 b 550 1006 611 1006 581 1018 z "},"Y":{"ha":743,"x_min":0,"x_max":0,"o":"m 82 949 b 43 792 61 926 51 888 b 50 435 36 694 31 540 b 183 231 71 328 117 269 b 404 286 251 192 342 171 b 436 360 415 307 426 332 b 431 292 435 336 433 313 b 315 29 414 129 361 42 b 190 89 268 17 228 78 b 133 26 153 100 121 63 b 301 -46 147 -8 208 -40 b 603 119 396 -51 522 -32 b 703 721 683 271 717 553 b 569 961 689 890 625 946 b 497 950 543 969 522 961 b 436 831 482 943 458 931 b 343 356 408 706 382 456 b 243 428 304 256 256 307 b 253 846 232 550 260 742 b 165 978 246 951 207 975 b 82 949 124 982 100 968 z "},"Z":{"ha":610,"x_min":0,"x_max":0,"o":"m 383 982 b 178 972 310 982 233 975 b 25 944 78 967 46 974 b 106 815 4 915 -7 850 b 394 790 175 794 290 785 b 163 379 329 676 232 497 b 24 140 86 246 46 188 b 22 39 3 96 -1 63 b 76 8 33 28 51 15 b 435 8 164 -15 335 1 b 586 38 536 15 567 13 b 514 142 606 63 615 117 b 271 157 456 157 361 161 b 392 360 308 214 349 283 b 599 753 469 497 560 654 b 538 964 624 815 643 929 b 383 982 496 978 440 982 z "},"[":{"ha":453,"x_min":0,"x_max":0,"o":"m 300 1188 b 99 1188 250 1206 154 1203 b 24 924 44 1172 29 1146 b 38 61 17 703 18 288 b 164 -224 57 -165 94 -203 b 388 -225 233 -244 335 -250 b 410 -118 439 -200 442 -144 b 269 -86 378 -92 313 -93 b 183 129 226 -81 204 -65 b 154 890 163 324 143 699 b 246 1093 165 1082 207 1089 b 336 1115 283 1096 321 1096 b 300 1188 353 1133 350 1171 z "},"\\":{"ha":589,"x_min":0,"x_max":0,"o":"m 53 1107 b 38 871 14 1099 -15 1043 b 318 215 90 699 226 411 b 500 -126 410 21 457 -82 b 592 -106 543 -172 581 -160 b 515 239 603 -53 586 43 b 226 901 443 435 315 732 b 53 1107 139 1072 92 1114 z "},"]":{"ha":453,"x_min":0,"x_max":0,"o":"m 150 -229 b 351 -229 200 -247 296 -244 b 426 33 406 -215 421 -187 b 413 897 433 256 432 671 b 286 1182 393 1124 356 1161 b 63 1183 217 1203 115 1208 b 40 1076 11 1157 8 1103 b 181 1044 71 1049 138 1051 b 267 829 224 1039 246 1024 b 296 68 288 635 307 258 b 204 -135 285 -124 243 -131 b 113 -157 165 -139 129 -139 b 150 -229 97 -175 100 -212 z "},"^":{"ha":439,"x_min":0,"x_max":0,"o":"m 221 1000 b 151 950 193 997 169 974 b 54 790 114 901 79 849 b 49 719 46 768 40 742 b 97 699 57 699 79 689 b 149 757 119 710 133 736 b 225 858 172 793 200 824 b 315 736 254 817 288 779 b 365 694 329 718 344 697 b 403 731 382 693 400 710 b 383 817 407 761 396 792 b 297 950 358 865 329 908 b 231 1000 279 972 258 996 b 221 1000 228 1000 225 1000 z "},"_":{"ha":701,"x_min":0,"x_max":0,"o":"m 697 -58 b 565 4 696 -25 656 -6 b 229 6 475 14 332 14 b 33 -47 126 -3 63 -21 b 49 -126 3 -75 6 -111 b 278 -142 92 -142 175 -135 b 586 -153 382 -147 507 -167 b 697 -58 665 -139 700 -92 z "},"`":{"ha":590,"x_min":0,"x_max":0,"o":"m 310 742 b 371 774 354 713 382 725 b 271 942 358 821 307 906 b 197 954 236 979 217 968 b 183 883 179 942 161 925 b 310 742 204 840 265 771 z "},"a":{"ha":629,"x_min":0,"x_max":0,"o":"m 411 613 b 357 625 397 617 379 621 b 142 592 297 635 207 640 b 25 340 75 543 33 440 b 100 86 17 240 43 143 b 314 42 158 29 249 11 b 407 142 353 60 383 94 b 461 -1 419 67 436 22 b 550 14 492 -29 533 -28 b 568 236 568 54 561 133 b 581 540 575 338 596 461 b 476 654 564 619 511 651 b 411 613 440 657 424 644 z m 343 589 b 403 578 364 589 385 583 b 390 421 400 569 394 468 b 336 119 381 304 363 168 b 224 257 300 53 240 143 b 276 560 206 371 231 507 b 343 589 296 582 319 589 z "},"b":{"ha":640,"x_min":0,"x_max":0,"o":"m 111 817 b 56 626 85 792 67 751 b 61 176 44 501 40 293 b 163 36 82 60 129 38 b 194 49 175 36 185 39 b 194 47 194 47 194 47 b 294 -1 214 31 244 10 b 476 31 344 -11 414 -10 b 607 256 538 71 593 151 b 542 561 621 361 592 492 b 367 614 492 631 419 640 b 267 494 315 586 283 524 b 254 525 251 465 251 472 b 256 744 257 579 263 681 b 193 839 249 807 229 833 b 111 817 157 844 131 835 z m 386 551 b 435 479 407 551 425 525 b 419 165 451 397 442 251 b 322 58 397 81 361 54 b 222 101 288 61 250 88 b 239 156 228 117 233 135 b 335 503 265 254 297 426 b 386 551 351 536 369 551 z "},"c":{"ha":567,"x_min":0,"x_max":0,"o":"m 464 486 b 485 447 468 461 472 451 b 533 450 497 442 518 442 b 554 506 550 457 558 474 b 479 615 550 536 531 582 b 261 651 426 647 340 668 b 69 503 182 633 111 579 b 31 240 26 426 14 328 b 156 33 46 153 90 78 b 374 -4 219 -10 306 -21 b 518 92 442 11 492 54 b 533 176 543 128 544 158 b 485 192 522 193 499 197 b 450 144 469 185 464 168 b 379 81 436 121 413 90 b 274 121 346 69 303 79 b 228 318 244 164 228 238 b 282 529 228 397 243 483 b 417 565 321 575 383 582 b 464 486 451 549 458 510 z "},"d":{"ha":688,"x_min":0,"x_max":0,"o":"m 511 861 b 438 697 469 858 447 821 b 433 603 436 669 435 638 b 364 618 417 608 394 614 b 136 579 301 626 203 628 b 25 332 68 531 31 431 b 103 79 19 232 46 136 b 317 35 161 21 250 3 b 443 236 376 63 417 129 b 443 231 443 235 443 232 b 504 7 454 96 474 36 b 597 18 535 -22 576 -19 b 628 268 619 57 622 129 b 618 729 632 408 640 614 b 511 861 599 833 554 864 z m 353 583 b 431 567 382 583 410 572 b 344 125 410 425 385 200 b 226 250 303 44 243 136 b 285 554 211 364 239 501 b 353 583 306 576 329 583 z "},"e":{"ha":569,"x_min":0,"x_max":0,"o":"m 317 657 b 211 638 281 657 244 651 b 31 410 121 603 53 518 b 104 99 10 303 35 174 b 371 7 172 24 286 4 b 529 65 456 11 513 39 b 496 115 547 92 526 115 b 383 90 465 115 426 92 b 268 140 342 89 297 110 b 218 250 240 169 229 210 b 344 256 261 250 303 251 b 465 290 386 260 426 269 b 546 408 503 313 538 347 b 474 607 554 469 538 557 b 317 657 435 639 376 657 z m 376 538 b 414 529 389 536 403 535 b 471 400 460 508 483 447 b 361 307 458 354 410 324 b 235 290 311 290 261 289 b 208 329 208 290 206 293 b 260 483 211 367 221 438 b 376 538 289 517 335 538 z "},"f":{"ha":447,"x_min":0,"x_max":0,"o":"m 286 942 b 236 926 271 942 253 938 b 110 657 189 896 139 819 b 72 649 96 654 83 651 b 61 561 -3 626 -1 581 b 96 554 71 558 83 556 b 117 -51 75 357 76 88 b 285 -161 161 -203 251 -197 b 278 101 317 -124 293 -53 b 265 550 265 226 258 407 b 318 553 285 551 303 551 b 425 568 390 554 411 550 b 372 647 439 586 446 626 b 276 663 347 654 314 660 b 338 896 296 800 339 857 b 286 942 336 924 315 942 z "},"g":{"ha":665,"x_min":0,"x_max":0,"o":"m 508 657 b 436 608 474 658 449 638 b 432 596 435 604 433 600 b 429 590 431 594 429 592 b 339 622 414 607 386 618 b 151 585 286 626 210 619 b 33 390 92 550 50 486 b 83 96 17 296 25 171 b 314 28 140 21 247 -4 b 403 153 357 47 383 92 b 400 115 401 139 401 128 b 371 -132 394 13 393 -56 b 261 -297 350 -207 310 -290 b 104 -222 211 -306 154 -239 b 29 -275 56 -204 14 -237 b 217 -365 46 -312 119 -354 b 515 -194 314 -378 436 -358 b 619 447 593 -31 628 278 b 519 656 611 618 560 650 b 508 657 517 657 513 657 z m 303 575 b 410 547 343 576 385 553 b 411 546 410 546 411 546 b 393 476 406 526 399 504 b 306 104 365 354 346 157 b 190 256 265 51 206 142 b 251 556 174 371 201 508 b 303 575 267 569 285 575 z "},"h":{"ha":647,"x_min":0,"x_max":0,"o":"m 135 865 b 124 864 131 865 128 864 b 54 697 86 858 64 821 b 60 231 46 575 49 365 b 121 7 71 96 90 36 b 210 3 151 -22 193 -19 b 258 111 226 25 240 47 b 367 479 288 208 329 401 b 444 421 406 556 440 515 b 426 100 449 328 422 182 b 496 -10 431 17 464 0 b 576 0 529 -18 561 -19 b 600 136 593 19 593 60 b 607 413 606 214 618 331 b 507 576 594 494 561 543 b 321 542 451 610 378 629 b 247 356 292 499 267 428 b 235 729 251 483 253 636 b 135 865 215 833 171 864 z "},"i":{"ha":283,"x_min":0,"x_max":0,"o":"m 50 474 b 50 175 36 388 39 271 b 111 -8 61 81 82 21 b 200 6 142 -37 183 -35 b 219 231 218 47 211 126 b 238 529 228 333 251 461 b 125 596 222 596 157 604 b 50 474 94 589 64 561 z m 189 872 b 75 856 154 886 106 879 b 40 757 46 832 33 792 b 110 681 47 721 74 690 b 221 701 146 669 193 681 b 251 789 249 722 257 756 b 189 872 244 822 224 857 z "},"j":{"ha":388,"x_min":0,"x_max":0,"o":"m 224 619 b 119 496 175 622 132 590 b 128 115 107 400 124 240 b 99 -175 131 -10 122 -99 b -8 -314 76 -251 39 -315 b -162 -228 -56 -311 -112 -244 b -237 -281 -212 -211 -253 -243 b -50 -372 -221 -318 -147 -361 b 246 -207 47 -383 169 -365 b 339 417 321 -47 351 250 b 224 619 326 583 272 618 z m 261 872 b 149 856 226 886 178 879 b 114 757 118 832 107 792 b 182 681 121 721 146 690 b 293 701 218 669 265 681 b 324 789 321 722 329 756 b 261 872 317 822 296 857 z "},"k":{"ha":604,"x_min":0,"x_max":0,"o":"m 129 861 b 56 697 88 858 65 821 b 60 231 46 575 49 365 b 122 7 72 96 92 36 b 215 18 153 -22 193 -19 b 240 107 225 36 231 61 b 268 229 250 151 258 189 b 300 235 279 233 290 236 b 363 174 325 233 346 214 b 410 29 381 135 394 75 b 469 -67 425 -15 440 -47 b 576 -89 500 -86 543 -93 b 632 -53 608 -83 628 -67 b 607 10 638 -39 626 -28 b 528 165 588 47 560 113 b 374 308 496 218 443 296 b 390 331 360 311 350 310 b 556 450 429 350 517 390 b 544 625 594 510 588 589 b 367 606 500 661 422 654 b 254 367 311 558 279 469 b 247 335 251 356 249 346 b 235 729 251 467 254 631 b 129 861 215 833 171 864 z m 414 571 b 435 558 424 571 431 565 b 411 435 450 533 438 482 b 283 296 385 389 289 300 b 339 488 300 367 319 439 b 414 571 365 550 394 571 z "},"l":{"ha":321,"x_min":0,"x_max":0,"o":"m 129 864 b 54 697 89 858 65 821 b 60 231 44 575 47 365 b 128 7 72 96 94 36 b 229 18 160 -22 206 -19 b 261 268 253 57 256 129 b 250 729 267 408 275 614 b 129 864 226 844 169 869 z "},"m":{"ha":974,"x_min":0,"x_max":0,"o":"m 401 657 b 301 589 367 656 332 639 b 235 419 275 549 254 486 b 232 547 239 467 239 511 b 125 656 215 625 163 657 b 54 528 88 653 65 615 b 53 199 43 439 43 299 b 113 10 63 97 82 38 b 201 24 143 -19 185 -17 b 210 54 206 32 208 42 b 239 135 218 68 228 93 b 347 525 268 238 310 443 b 425 468 386 608 421 568 b 407 122 429 369 403 211 b 476 8 411 35 444 18 b 557 18 510 -1 540 -1 b 578 138 571 35 574 71 b 686 525 607 240 649 443 b 764 468 724 608 760 568 b 746 122 768 369 742 211 b 813 13 749 35 783 18 b 889 38 843 7 871 14 b 924 178 907 60 915 99 b 926 463 932 257 940 378 b 825 629 914 547 879 596 b 639 589 771 663 697 682 b 586 463 619 557 601 513 b 486 629 575 549 540 596 b 401 657 461 644 432 657 z "},"n":{"ha":633,"x_min":0,"x_max":0,"o":"m 400 657 b 300 590 365 657 331 639 b 235 422 275 550 253 488 b 231 547 238 468 238 513 b 124 656 215 625 163 657 b 53 528 86 653 64 615 b 51 201 42 440 42 301 b 113 14 63 103 82 42 b 201 28 143 -15 183 -12 b 208 58 204 36 207 47 b 239 139 217 72 226 97 b 346 526 267 240 308 444 b 424 469 385 608 419 568 b 406 126 428 371 401 214 b 476 13 410 39 443 22 b 556 22 508 3 540 3 b 579 164 572 42 572 81 b 586 460 585 247 597 372 b 486 629 574 547 540 596 b 400 657 460 644 431 657 z "},"o":{"ha":592,"x_min":0,"x_max":0,"o":"m 25 333 b 294 0 25 150 146 0 b 564 333 443 0 564 150 b 294 667 564 518 443 667 b 25 333 146 667 25 518 z m 338 569 b 446 333 401 569 450 464 b 324 99 442 204 388 99 b 215 335 258 99 210 204 b 338 569 219 465 274 569 z "},"p":{"ha":688,"x_min":0,"x_max":0,"o":"m 140 657 b 129 656 138 657 133 657 b 61 469 93 650 71 610 b 65 -64 51 329 54 89 b 128 -311 78 -215 97 -281 b 221 -300 158 -343 199 -340 b 250 -22 243 -258 244 -179 b 256 167 251 33 254 99 b 378 54 283 117 322 68 b 626 190 460 35 575 90 b 617 526 679 292 665 438 b 418 647 568 615 483 646 b 265 525 354 650 308 625 b 246 474 258 510 251 492 b 240 503 244 483 243 493 b 140 657 221 622 176 656 z m 385 588 b 458 344 428 589 460 456 b 368 146 457 221 417 124 b 256 317 331 163 288 250 b 254 329 254 321 254 325 b 371 582 292 438 335 557 b 385 588 376 585 381 586 z "},"q":{"ha":681,"x_min":0,"x_max":0,"o":"m 568 653 b 521 640 551 653 535 649 b 492 607 508 633 499 624 b 399 632 474 618 444 625 b 160 607 332 640 233 644 b 26 394 85 571 36 494 b 117 101 15 296 44 174 b 379 39 189 29 307 7 b 461 126 417 56 442 86 b 489 -183 463 11 469 -104 b 675 -360 526 -337 608 -361 b 800 -299 742 -357 793 -329 b 736 -246 808 -268 774 -236 b 635 -271 697 -257 656 -310 b 621 31 613 -232 611 -103 b 664 404 631 164 653 299 b 646 619 675 508 676 582 b 568 653 628 643 597 653 z m 336 588 b 438 560 374 588 413 568 b 433 506 436 544 435 526 b 426 482 431 499 428 490 b 339 124 399 374 379 178 b 224 275 300 71 240 161 b 285 568 208 388 235 522 b 336 588 300 582 318 588 z "},"r":{"ha":517,"x_min":0,"x_max":0,"o":"m 65 572 b 56 153 36 474 46 265 b 107 10 65 39 76 21 b 214 65 138 -1 188 -4 b 244 364 240 136 240 281 b 279 496 249 446 257 468 b 360 556 301 524 340 558 b 376 489 378 554 378 515 b 378 433 375 461 374 446 b 413 411 381 421 389 413 b 490 456 435 410 472 417 b 479 610 508 496 506 567 b 357 649 453 653 401 668 b 256 546 313 629 274 574 b 236 540 236 518 238 518 b 197 632 236 561 232 606 b 65 572 163 660 94 671 z "},"s":{"ha":479,"x_min":0,"x_max":0,"o":"m 324 517 b 364 428 339 482 343 444 b 439 446 383 413 419 419 b 438 558 458 472 460 518 b 304 650 415 600 368 635 b 108 625 242 664 164 657 b 22 475 54 592 25 535 b 101 297 19 415 46 354 b 283 144 157 239 244 185 b 290 64 321 104 313 78 b 213 69 269 49 236 47 b 161 164 189 92 178 138 b 104 193 146 189 125 196 b 60 147 83 190 61 181 b 122 25 58 115 76 61 b 301 -14 167 -11 239 -29 b 435 100 363 0 413 47 b 407 263 457 153 451 211 b 228 408 363 315 281 360 b 157 542 174 456 149 507 b 246 588 167 575 211 593 b 324 517 281 581 308 550 z "},"t":{"ha":421,"x_min":0,"x_max":0,"o":"m 211 861 b 138 763 183 860 156 828 b 119 636 129 728 122 685 b 110 636 117 636 113 636 b -1 622 36 636 14 640 b 54 543 -15 604 -22 565 b 115 533 71 539 92 535 b 128 235 114 428 119 318 b 192 -8 142 81 161 21 b 281 6 222 -37 264 -35 b 294 281 299 47 292 126 b 299 529 296 354 299 443 b 372 540 326 532 351 535 b 378 621 450 560 444 601 b 297 633 356 628 328 631 b 278 779 294 690 289 742 b 211 861 263 835 238 863 z "},"u":{"ha":621,"x_min":0,"x_max":0,"o":"m 85 631 b 50 490 67 608 58 569 b 47 206 42 411 33 290 b 149 39 60 121 94 74 b 335 79 203 6 276 -14 b 393 224 357 115 376 167 b 394 199 393 215 394 207 b 456 10 406 99 425 39 b 544 24 486 -19 526 -17 b 561 246 561 65 554 144 b 574 546 568 346 589 468 b 467 654 558 624 506 657 b 389 525 432 653 410 619 b 288 143 367 431 326 225 b 210 200 250 61 214 101 b 228 544 206 299 232 457 b 156 661 225 633 192 658 b 85 631 121 665 100 649 z "},"v":{"ha":546,"x_min":0,"x_max":0,"o":"m 200 547 b 132 647 176 621 157 640 b 53 625 106 653 74 646 b 38 456 32 604 22 569 b 164 63 53 340 93 146 b 403 118 233 -22 335 4 b 515 539 469 232 506 435 b 493 653 525 643 511 649 b 438 647 475 657 453 661 b 397 494 424 632 417 600 b 321 153 376 390 342 211 b 274 250 300 94 293 156 b 200 547 256 344 225 472 z "},"w":{"ha":882,"x_min":0,"x_max":0,"o":"m 111 657 b 51 633 90 657 68 649 b 38 464 31 613 22 578 b 163 72 53 350 93 156 b 393 124 233 -11 333 14 b 439 249 413 158 428 203 b 508 72 454 178 478 113 b 740 126 572 -11 672 14 b 853 540 808 239 843 439 b 831 653 864 643 849 647 b 776 646 813 657 790 660 b 736 515 761 632 756 600 b 663 239 717 432 685 296 b 619 279 642 182 633 204 b 572 551 607 353 589 479 b 508 650 554 625 535 644 b 431 628 483 657 451 650 b 406 526 414 613 404 588 b 399 475 404 513 401 496 b 346 168 388 383 367 221 b 281 263 326 115 306 171 b 200 556 254 354 225 482 b 131 654 175 629 157 649 b 111 657 125 657 118 657 z "},"x":{"ha":482,"x_min":0,"x_max":0,"o":"m 401 657 b 388 656 396 657 392 656 b 311 561 371 651 363 642 b 258 478 296 539 278 510 b 206 561 239 510 221 538 b 110 653 156 635 133 649 b 44 639 88 657 64 654 b 35 532 25 625 10 599 b 153 310 56 476 106 390 b 107 233 136 283 121 257 b 24 67 49 136 28 93 b 46 25 19 39 35 28 b 76 35 58 22 67 28 b 199 183 106 65 135 94 b 215 207 204 190 210 199 b 329 65 254 146 290 94 b 471 39 382 28 440 28 b 486 103 500 50 501 72 b 388 261 472 133 442 174 b 324 368 368 293 346 329 b 407 507 357 419 386 468 b 442 640 456 594 454 625 b 401 657 432 653 415 657 z "},"y":{"ha":667,"x_min":0,"x_max":0,"o":"m 146 657 b 88 631 122 657 103 649 b 53 492 69 608 61 569 b 49 214 44 414 36 297 b 151 49 63 131 97 82 b 336 88 206 15 279 -4 b 403 256 363 128 385 189 b 410 153 406 219 408 185 b 393 -107 418 39 415 -31 b 275 -276 369 -183 325 -268 b 117 -200 224 -285 167 -218 b 42 -254 67 -183 26 -217 b 229 -344 58 -292 132 -333 b 525 -179 326 -357 449 -337 b 618 446 600 -19 631 279 b 503 650 606 614 551 649 b 444 631 482 651 461 646 b 422 604 439 629 431 622 b 404 554 415 590 408 574 b 399 535 401 547 400 542 b 290 151 369 433 328 232 b 213 208 251 69 217 110 b 231 546 208 306 235 460 b 163 656 228 633 193 650 b 146 657 157 657 151 657 z "},"z":{"ha":468,"x_min":0,"x_max":0,"o":"m 240 533 b 143 344 210 481 178 417 b 94 243 126 307 110 274 b 36 138 71 197 51 163 b 7 79 22 114 13 94 b 7 14 -7 51 -6 29 b 50 -12 13 4 28 -6 b 157 -22 78 -19 114 -22 b 278 -18 200 -22 240 -21 b 307 -17 288 -18 297 -18 l 339 -17 b 390 -12 363 -15 379 -14 b 414 0 401 -11 410 -7 b 424 22 419 6 422 13 b 413 49 425 31 421 39 b 363 71 403 57 386 64 b 213 85 322 81 272 85 l 190 85 b 286 239 222 125 253 176 b 360 383 311 288 336 335 b 413 510 383 432 401 474 b 424 590 422 544 426 572 b 408 628 421 608 415 621 b 406 629 407 629 407 629 b 360 656 396 640 381 649 b 257 664 331 663 296 665 b 144 654 217 661 179 658 b 113 650 133 653 122 651 b 76 647 99 649 86 649 b 32 643 57 646 42 644 b 10 626 22 640 14 635 b 0 601 4 619 1 611 b 13 569 -1 590 3 579 b 64 544 22 560 39 551 b 219 533 106 535 157 531 z "},"{":{"ha":544,"x_min":0,"x_max":0,"o":"m 374 1204 b 188 1110 313 1201 233 1183 b 136 813 143 1035 131 904 b 153 632 143 719 167 667 b 61 567 140 597 89 582 b 29 513 33 550 29 535 b 53 446 29 492 36 464 b 121 399 69 428 97 421 b 165 265 146 376 165 340 b 149 -10 167 190 147 76 b 246 -187 151 -97 172 -157 b 507 -192 321 -218 446 -218 b 531 -94 567 -167 563 -114 b 382 -90 499 -75 439 -89 b 258 -19 325 -92 271 -82 b 288 246 247 44 278 161 b 265 417 297 329 286 381 b 211 488 246 453 217 474 b 240 542 206 503 224 511 b 272 681 257 574 271 628 b 251 832 274 732 261 783 b 244 969 242 879 235 925 b 328 1082 256 1015 283 1061 b 472 1110 374 1103 436 1097 b 496 1172 507 1122 514 1151 b 374 1204 478 1193 435 1207 z "},"|":{"ha":688,"x_min":0,"x_max":0,"o":"m 336 1186 b 260 928 297 1176 271 1119 b 264 206 247 738 251 414 b 333 -140 278 -3 301 -96 b 425 -122 365 -185 404 -182 b 453 264 446 -64 449 49 b 444 976 458 479 465 797 b 336 1186 424 1156 374 1194 z "},"}":{"ha":544,"x_min":0,"x_max":0,"o":"m 210 -211 b 394 -115 271 -208 350 -190 b 446 182 440 -42 453 89 b 429 361 440 274 417 326 b 521 428 443 396 493 411 b 554 481 550 443 554 458 b 531 547 553 503 547 531 b 461 594 513 565 485 572 b 417 728 438 617 418 653 b 433 1004 417 803 435 917 b 336 1182 432 1090 410 1151 b 76 1186 263 1211 136 1211 b 53 1088 15 1160 21 1107 b 201 1083 85 1068 144 1082 b 324 1013 257 1086 313 1076 b 296 747 336 949 306 832 b 318 576 286 664 297 613 b 372 506 338 540 367 521 b 343 451 378 492 360 483 b 310 314 326 421 311 367 b 332 161 310 261 321 210 b 338 24 342 114 349 69 b 254 -89 328 -22 300 -68 b 111 -117 210 -110 146 -104 b 88 -179 76 -129 69 -157 b 210 -211 106 -200 149 -214 z "},"~":{"ha":922,"x_min":0,"x_max":0,"o":"m 36 451 b 69 374 25 407 44 379 b 157 419 93 369 122 388 b 281 479 192 451 232 496 b 467 343 329 461 388 383 b 719 324 546 303 646 300 b 872 442 794 346 844 394 b 896 563 900 489 906 535 b 828 575 886 590 861 600 b 706 460 796 550 756 492 b 540 457 657 429 597 426 b 360 586 483 489 428 554 b 149 586 292 618 210 617 b 36 451 88 556 47 496 z "},"¡":{"ha":456,"x_min":0,"x_max":0,"o":"m 229 326 b 119 139 178 322 142 281 b 101 -399 97 -1 90 -243 b 182 -660 113 -554 142 -625 b 304 -653 222 -696 275 -694 b 356 -367 335 -610 342 -526 b 367 164 369 -207 389 29 b 229 326 344 299 281 331 z m 217 394 b 360 442 264 382 331 399 b 346 592 389 486 381 556 b 207 613 311 629 250 633 b 140 499 164 592 139 544 b 217 394 142 454 169 408 z "},"¢":{"ha":757,"x_min":0,"x_max":0,"o":"m 535 922 b 503 1033 526 976 517 1014 b 458 1058 488 1054 472 1063 b 424 1014 444 1056 433 1040 b 408 938 417 996 413 971 b 357 931 392 936 374 933 b 136 768 261 910 188 856 b 92 478 88 678 74 581 b 235 249 111 376 158 300 b 421 199 296 214 358 197 b 456 90 431 140 442 104 b 524 103 482 57 506 61 b 539 224 531 124 536 164 b 589 251 557 231 574 240 b 653 311 617 271 638 290 b 671 406 681 354 686 385 b 644 425 664 415 656 422 b 614 424 633 426 624 426 b 586 390 604 418 594 407 b 575 371 583 385 579 378 b 543 331 567 358 556 344 l 543 381 b 544 385 543 382 543 383 b 549 656 546 467 547 557 b 543 833 549 721 547 781 b 576 797 558 824 569 813 b 590 750 583 781 588 765 l 590 747 b 600 718 593 735 596 725 b 614 706 603 711 607 707 b 643 701 622 703 632 701 b 672 708 653 701 663 704 b 696 769 692 715 700 736 b 672 831 693 788 685 808 b 608 890 660 851 638 872 b 535 922 588 903 563 914 z m 400 813 b 397 611 397 753 397 685 b 406 342 399 513 401 422 l 408 311 b 371 346 394 319 382 331 b 319 563 336 397 319 469 b 333 693 318 608 324 651 b 382 796 343 735 360 769 b 400 813 388 801 393 808 z "},"£":{"ha":688,"x_min":0,"x_max":0,"o":"m 124 514 b 22 478 72 507 38 496 b 11 446 13 468 10 457 b 32 421 13 435 19 426 b 111 411 50 414 76 411 b 160 410 126 411 142 411 b 174 349 165 389 169 368 b 169 217 181 299 179 254 b 129 117 158 179 144 146 b 122 104 126 113 124 108 b 97 42 107 78 99 57 b 132 10 94 25 106 14 b 290 11 169 6 222 6 b 433 15 342 15 389 17 b 529 6 472 14 504 10 b 608 8 564 -3 590 -1 b 639 61 625 19 635 38 b 613 125 642 85 633 107 b 517 151 589 140 557 150 b 396 144 475 153 435 151 b 304 122 357 138 326 129 b 269 115 283 115 271 113 b 279 133 269 118 272 124 b 304 175 286 143 294 157 b 324 236 314 192 319 213 b 306 397 326 281 321 335 b 364 401 326 397 346 399 b 417 431 388 407 406 417 b 432 469 428 443 433 457 b 350 515 432 493 404 508 b 269 521 326 518 300 521 b 263 543 268 528 265 536 b 218 710 244 600 229 656 b 222 843 207 764 208 808 b 317 908 243 879 274 901 b 426 893 360 915 396 911 b 468 842 446 879 460 863 b 485 778 475 821 481 799 b 497 735 489 761 493 747 b 533 703 506 714 518 704 b 579 719 549 701 564 707 b 619 769 596 731 610 747 b 622 854 629 792 629 819 b 567 964 614 890 596 926 b 456 1049 538 1001 501 1029 b 306 1058 408 1065 358 1068 b 164 992 251 1049 204 1026 b 74 693 88 918 57 819 b 124 514 85 633 101 574 z "},"¤":{"ha":688,"x_min":0,"x_max":0,"o":"m 510 747 b 490 743 503 747 497 746 b 417 688 469 735 446 714 b 343 700 394 696 368 700 b 279 692 321 700 299 697 b 171 738 235 724 199 739 b 124 675 133 738 110 711 b 178 601 132 654 151 631 b 165 549 171 586 167 568 b 169 476 164 526 164 501 b 146 447 160 467 153 457 b 143 315 107 392 119 338 b 267 347 168 292 206 301 b 279 356 271 350 275 353 b 388 356 314 347 353 347 b 418 331 397 346 408 338 b 551 328 475 292 529 303 b 519 451 574 351 565 389 b 510 465 517 456 513 460 b 518 533 517 486 519 510 b 508 589 518 553 514 571 b 554 694 539 632 554 667 b 540 735 554 711 549 725 b 513 747 532 742 524 746 b 510 747 511 747 510 747 z m 342 597 b 379 589 356 597 369 594 b 414 528 401 576 414 553 b 381 463 415 503 406 476 b 296 464 357 450 318 449 b 269 535 274 479 267 510 b 304 589 271 560 283 579 b 342 597 315 594 329 597 z "},"¥":{"ha":743,"x_min":0,"x_max":0,"o":"m 415 199 b 314 158 364 192 329 178 b 304 125 306 147 303 136 b 324 97 306 113 311 104 b 376 89 336 92 353 89 b 315 29 357 54 336 35 b 274 35 300 25 286 28 b 233 61 260 42 246 51 b 190 89 218 74 204 83 b 143 75 171 93 156 89 b 133 26 131 61 128 44 b 301 -46 150 -11 206 -36 b 458 -21 350 -50 403 -42 b 574 74 500 -6 539 26 b 626 76 592 72 610 74 b 675 108 649 83 665 93 b 689 150 685 122 690 136 b 635 196 689 172 671 188 b 689 414 658 260 676 332 b 703 721 706 529 710 632 b 653 900 694 804 678 864 b 569 961 626 935 599 956 b 497 950 544 967 521 963 b 479 939 492 949 486 944 b 458 904 472 932 465 921 b 436 831 451 888 443 863 b 406 656 426 782 417 724 b 376 486 396 597 386 540 b 343 356 367 432 356 388 b 283 310 322 307 303 292 b 243 428 264 326 250 365 b 247 665 239 499 240 578 b 253 846 253 736 254 797 b 222 951 249 897 239 933 b 165 978 206 969 186 978 b 82 949 125 979 97 969 b 58 899 72 939 64 922 b 43 792 51 875 47 839 b 38 617 39 740 38 682 b 50 435 36 551 40 490 b 183 231 71 333 115 265 b 296 200 218 208 256 199 b 404 286 336 201 372 231 b 436 360 417 307 426 331 b 431 292 435 336 433 313 b 415 199 426 257 422 226 z "},"¦":{"ha":688,"x_min":0,"x_max":0,"o":"m 324 1172 b 264 1044 294 1168 274 1140 b 268 681 254 949 257 786 b 322 507 278 576 297 529 b 396 517 347 485 379 488 b 418 711 411 546 414 603 b 411 1068 421 818 428 978 b 324 1172 394 1157 354 1178 z m 324 460 b 264 331 294 456 274 426 b 268 -32 254 235 257 72 b 322 -206 278 -136 297 -183 b 396 -196 347 -228 379 -226 b 418 -3 411 -167 414 -110 b 411 356 421 106 428 265 b 324 460 394 444 354 464 z "},"§":{"ha":688,"x_min":0,"x_max":0,"o":"m 321 1108 b 163 1068 264 1107 207 1094 b 54 881 94 1028 57 956 b 153 658 51 807 83 731 b 199 617 167 644 183 631 b 111 510 160 589 129 550 b 108 501 111 507 110 504 b 101 481 106 496 103 489 b 146 307 88 422 99 361 b 369 125 200 242 303 185 b 457 -40 436 65 468 3 b 346 -97 446 -83 390 -106 b 250 -10 303 -90 269 -53 b 200 100 231 33 225 81 b 106 78 175 119 129 111 b 107 -62 82 46 79 -11 b 274 -176 136 -114 194 -158 b 517 -144 351 -194 450 -185 b 625 43 585 -104 622 -32 b 526 264 628 117 596 193 b 481 307 513 279 497 293 b 568 414 519 335 550 374 b 571 422 569 417 569 419 b 578 443 574 428 576 435 b 533 617 593 500 581 561 b 310 797 479 682 376 738 b 222 964 243 858 211 921 b 333 1021 235 1006 289 1028 b 429 933 376 1013 410 975 b 479 824 449 890 454 843 b 574 846 504 804 550 813 b 572 986 597 878 600 935 b 407 1099 544 1036 485 1081 b 321 1108 379 1106 350 1108 z m 283 549 b 379 469 321 519 357 493 b 397 374 422 424 418 393 b 300 454 358 404 322 431 b 283 549 257 499 263 531 z "},"¨":{"ha":694,"x_min":0,"x_max":0,"o":"m 290 924 b 192 921 263 942 221 940 b 157 831 163 901 147 864 b 243 765 168 796 207 764 b 324 835 279 767 314 799 b 290 924 333 869 318 906 z m 513 924 b 414 921 483 942 443 940 b 379 831 385 901 369 864 b 465 765 390 796 428 764 b 546 835 501 767 536 799 b 513 924 556 869 540 906 z "},"©":{"ha":1075,"x_min":0,"x_max":0,"o":"m 1035 521 b 983 776 1035 611 1017 703 b 613 1018 915 922 783 1001 b 132 835 442 1033 233 988 b 125 258 29 682 33 422 b 568 32 218 94 399 26 b 976 265 738 38 899 118 b 1035 521 1015 340 1033 431 z m 931 526 b 886 328 931 456 917 385 b 568 144 825 213 700 150 b 222 321 435 140 294 193 b 226 771 150 449 147 651 b 603 914 307 890 469 926 b 890 725 735 901 838 840 b 931 526 917 668 932 597 z m 713 683 b 733 644 717 658 721 649 b 782 647 746 639 767 639 b 803 703 799 654 807 671 b 728 813 799 733 779 779 b 510 849 675 844 589 865 b 318 700 431 831 360 776 b 279 438 275 624 263 525 b 404 231 294 350 339 275 b 622 193 468 188 554 176 b 767 289 690 208 740 251 b 782 374 792 325 793 356 b 733 389 771 390 747 394 b 699 342 718 382 713 365 b 628 278 685 318 661 288 b 522 318 594 267 551 276 b 476 515 493 361 476 435 b 531 726 476 594 492 681 b 665 763 569 772 632 779 b 713 683 700 746 707 707 z "},"ª":{"ha":432,"x_min":0,"x_max":0,"o":"m 276 919 b 242 926 268 922 256 925 b 99 907 203 932 142 936 b 22 756 56 878 28 815 b 72 604 17 696 33 638 b 213 576 110 569 169 558 b 274 638 239 588 258 608 b 310 551 282 592 293 565 b 368 560 331 535 357 536 b 381 693 381 585 375 632 b 389 876 385 754 399 829 b 319 944 378 924 343 943 b 276 919 296 946 285 939 z m 232 906 b 271 899 246 906 260 901 b 264 804 269 893 267 833 b 228 624 257 735 244 653 b 153 706 204 583 164 638 b 188 888 142 774 158 856 b 232 906 201 901 217 906 z m 378 300 b 313 363 376 333 357 353 b 143 364 267 372 194 372 b 46 311 92 356 61 338 b 53 232 31 283 32 247 b 168 217 75 217 117 224 b 322 206 221 211 282 192 b 378 300 363 219 379 267 z "},"«":{"ha":640,"x_min":0,"x_max":0,"o":"m 246 467 b 92 364 196 439 131 396 b 42 289 53 331 42 310 b 92 215 42 269 53 247 b 246 113 131 182 196 139 b 353 79 296 85 331 75 b 371 122 375 82 386 101 b 271 199 357 142 317 165 b 151 289 232 229 189 268 b 271 379 189 311 232 350 b 371 457 317 414 357 436 b 349 499 386 478 375 496 b 246 467 321 501 289 490 z m 479 483 b 325 381 429 456 364 413 b 275 306 286 347 275 326 b 325 232 275 286 286 264 b 479 129 364 199 429 156 b 586 96 529 101 564 92 b 604 139 608 99 619 118 b 504 215 590 158 550 182 b 385 306 465 246 422 285 b 504 396 422 328 465 367 b 604 474 550 431 590 453 b 582 515 619 494 608 513 b 479 483 554 518 522 507 z "},"¬":{"ha":779,"x_min":0,"x_max":0,"o":"m 38 458 b 110 408 51 432 79 417 b 249 396 140 399 174 396 b 508 403 322 397 438 401 b 625 381 581 403 610 399 b 636 304 640 363 642 329 b 617 236 632 278 621 258 b 621 167 611 213 614 186 b 658 143 629 147 642 138 b 708 225 676 149 696 172 b 724 428 721 279 726 361 b 668 574 719 494 706 544 b 463 614 629 603 564 611 b 142 601 361 617 222 613 b 31 547 61 592 40 574 b 38 458 21 519 24 483 z "},"®":{"ha":1075,"x_min":0,"x_max":0,"o":"m 1035 521 b 983 776 1035 611 1017 703 b 613 1018 915 922 783 1001 b 132 835 442 1033 233 988 b 125 258 29 682 33 422 b 568 32 218 94 399 26 b 976 265 738 38 899 118 b 1035 521 1015 340 1033 431 z m 931 526 b 886 328 931 456 917 385 b 568 144 825 213 700 150 b 222 321 435 140 294 193 b 226 771 150 449 147 651 b 603 914 307 890 469 926 b 890 725 735 901 838 840 b 931 526 917 668 932 597 z m 593 864 b 539 851 574 864 556 860 b 481 778 513 838 494 810 b 390 842 458 839 419 849 b 331 717 357 835 339 807 b 335 376 322 628 325 474 b 386 213 344 278 361 233 b 465 221 413 192 447 193 b 488 339 479 242 483 278 b 567 294 511 321 539 306 b 735 285 628 269 690 267 b 804 363 779 301 806 339 b 761 393 804 388 776 399 b 722 357 744 388 740 365 b 619 385 704 347 674 351 b 583 408 608 392 596 400 b 614 404 593 406 604 404 b 739 493 665 403 711 439 b 767 681 765 547 775 618 b 689 833 758 744 733 800 b 593 864 661 853 626 864 z m 574 794 b 606 772 585 794 596 786 b 636 624 628 742 639 688 b 583 468 633 560 615 485 b 496 500 557 453 519 481 b 497 525 497 508 497 517 b 532 746 507 585 515 692 b 574 794 543 782 558 796 z "},"¯":{"ha":675,"x_min":0,"x_max":0,"o":"m 626 842 b 515 906 625 875 592 896 b 232 906 439 915 319 915 b 67 853 146 897 93 881 b 81 775 42 826 44 790 b 274 760 117 760 186 765 b 533 749 361 753 465 735 b 626 842 600 763 629 808 z "},"°":{"ha":397,"x_min":0,"x_max":0,"o":"m 178 997 b 106 983 153 997 126 992 b 38 878 64 964 42 926 b 89 742 33 831 46 771 b 251 740 132 714 206 714 b 315 865 299 767 318 818 b 250 981 314 914 292 958 b 178 997 229 992 203 997 z m 176 915 b 207 910 188 915 199 914 b 233 861 224 900 233 882 b 207 810 235 842 226 821 b 140 811 189 800 158 799 b 119 867 122 822 117 847 b 147 910 121 886 131 901 b 176 915 156 914 167 915 z "},"±":{"ha":631,"x_min":0,"x_max":0,"o":"m 304 753 b 264 724 288 753 272 743 b 250 546 250 689 254 626 b 211 543 236 546 224 544 b 46 490 125 535 72 517 b 60 411 21 463 24 426 b 236 397 93 397 157 401 b 238 271 232 350 231 306 b 332 176 251 204 299 175 b 394 288 365 178 385 211 b 401 382 399 315 400 347 b 511 385 443 379 481 379 b 606 479 579 399 607 446 b 494 542 604 513 571 532 b 397 549 467 546 433 547 b 396 571 397 557 396 564 b 343 736 388 657 369 711 b 304 753 331 747 317 753 z m 615 36 b 504 99 614 69 581 89 b 221 100 428 108 308 108 b 56 47 135 92 82 74 b 69 -32 31 19 33 -17 b 263 -47 106 -47 175 -40 b 522 -58 350 -53 454 -72 b 615 36 589 -44 618 3 z "},"²":{"ha":435,"x_min":0,"x_max":0,"o":"m 32 519 b 56 436 24 490 26 453 b 194 424 83 419 136 424 b 342 432 251 425 314 422 b 356 478 371 442 365 464 b 300 504 346 492 332 500 b 183 508 269 508 222 510 b 119 508 144 507 114 503 b 214 561 125 513 165 526 b 347 707 261 594 315 647 b 376 889 379 768 388 835 b 282 1011 364 944 331 988 b 121 1019 233 1033 169 1035 b 25 943 72 1004 42 971 b 15 883 8 917 7 896 b 50 874 24 872 40 869 b 75 906 61 878 65 889 b 126 949 85 921 101 942 b 201 929 150 956 181 950 b 235 832 224 910 235 878 b 196 688 235 788 224 729 b 89 596 167 646 121 621 b 32 519 57 572 39 550 z "},"³":{"ha":511,"x_min":0,"x_max":0,"o":"m 131 1031 b 26 1017 75 1029 43 1028 b 22 971 11 1007 10 986 b 115 940 35 954 61 942 b 278 951 163 939 229 946 b 183 825 272 883 211 851 b 117 754 147 792 124 776 b 147 704 108 732 117 704 b 257 711 176 706 229 735 b 272 557 286 686 290 608 b 182 479 256 507 217 483 b 92 503 146 475 113 492 b 46 515 69 514 60 521 b 21 472 32 510 15 494 b 99 406 25 450 51 424 b 274 397 144 388 211 379 b 419 521 335 415 392 460 b 424 706 447 581 446 657 b 322 783 401 754 357 776 b 276 796 288 790 261 782 b 372 890 292 808 349 843 b 344 1019 397 938 392 1001 b 131 1031 279 1046 197 1033 z "},"´":{"ha":694,"x_min":0,"x_max":0,"o":"m 378 742 b 504 883 422 771 483 840 b 490 954 526 925 508 942 b 417 942 471 968 451 979 b 318 774 381 906 329 821 b 378 742 306 725 333 713 z "},"µ":{"ha":764,"x_min":0,"x_max":0,"o":"m 142 664 b 107 371 118 617 125 521 b 63 -85 89 219 46 15 b 204 -64 79 -185 154 -179 b 251 129 225 -15 240 54 b 288 103 263 119 275 110 b 465 139 343 68 418 49 b 485 182 472 151 479 165 b 539 43 496 111 514 67 b 628 58 569 14 611 17 b 646 283 646 100 639 181 b 658 592 653 386 675 513 b 550 703 643 672 589 704 b 479 572 513 700 490 663 b 472 482 475 546 474 515 b 418 203 457 382 439 261 b 340 261 390 124 354 165 b 318 596 325 358 332 510 b 221 707 306 681 271 707 b 142 664 172 707 153 686 z "},"¶":{"ha":749,"x_min":0,"x_max":0,"o":"m 368 926 b 214 904 314 926 260 919 b 24 664 108 867 18 794 b 283 408 40 372 283 408 l 299 411 b 293 143 292 318 288 210 b 335 39 297 75 314 47 b 407 65 357 31 386 40 b 451 268 428 92 442 135 b 447 747 460 401 464 624 b 426 836 442 786 435 815 b 457 833 436 836 446 835 b 515 824 476 831 497 828 b 515 822 515 822 515 822 b 499 522 501 771 507 671 b 490 82 492 374 471 178 b 601 104 510 -12 569 -7 b 631 582 633 217 638 435 b 604 797 628 685 618 754 b 671 778 631 789 653 782 b 722 797 714 768 721 783 b 700 843 724 813 719 825 b 557 906 681 861 647 886 b 368 926 507 917 438 926 z "},"·":{"ha":332,"x_min":0,"x_max":0,"o":"m 201 551 b 106 539 172 564 132 558 b 76 454 81 518 71 485 b 135 390 82 425 104 399 b 229 408 165 381 206 390 b 254 482 253 425 260 453 b 201 551 249 510 231 540 z "},"¸":{"ha":694,"x_min":0,"x_max":0,"o":"m 290 32 b 283 -118 281 -4 276 -78 b 321 -165 290 -160 306 -167 b 369 -146 335 -164 349 -154 b 435 -157 392 -137 419 -129 b 435 -275 450 -183 451 -246 b 354 -287 418 -306 382 -304 b 286 -232 325 -272 303 -242 b 269 -264 271 -224 260 -236 b 354 -356 279 -292 310 -333 b 510 -353 400 -378 460 -379 b 601 -217 561 -326 603 -274 b 513 -79 601 -160 560 -100 b 388 -85 467 -60 415 -79 b 347 -54 358 -90 351 -81 b 329 39 342 -28 339 15 b 290 32 319 63 301 67 z "},"¹":{"ha":332,"x_min":0,"x_max":0,"o":"m 31 967 b 13 900 1 938 4 914 b 64 886 22 885 38 881 b 114 904 79 889 96 896 b 117 579 107 811 108 671 b 164 413 125 475 140 432 b 239 419 189 392 221 393 b 261 596 256 447 257 499 b 257 921 265 693 272 838 b 165 1035 243 1006 208 1033 b 31 967 122 1036 61 996 z "},"º":{"ha":408,"x_min":0,"x_max":0,"o":"m 25 744 b 203 544 25 633 104 544 b 381 744 301 544 381 633 b 203 944 381 856 301 944 b 25 744 104 944 25 854 z m 232 886 b 303 744 274 886 306 822 b 221 603 300 667 264 603 b 150 744 179 603 147 667 b 232 886 153 824 189 886 z m 374 304 b 307 367 372 338 353 357 b 139 368 263 378 190 376 b 42 315 88 360 57 342 b 49 238 26 289 28 251 b 164 221 71 222 113 228 b 318 210 215 215 278 196 b 374 304 357 225 375 271 z "},"»":{"ha":640,"x_min":0,"x_max":0,"o":"m 407 467 b 304 499 364 490 332 501 b 282 457 278 496 267 478 b 382 379 297 436 336 414 b 501 289 421 350 464 311 b 382 199 464 268 421 229 b 282 122 336 165 297 142 b 300 79 267 101 278 82 b 407 113 322 75 357 85 b 561 215 457 139 524 182 b 611 289 600 247 611 269 b 561 364 611 310 600 331 b 407 467 524 396 457 439 z m 174 483 b 71 515 131 507 99 518 b 49 474 44 513 33 494 b 149 396 64 453 103 431 b 268 306 188 367 231 328 b 149 215 231 285 188 246 b 49 139 103 182 64 158 b 67 96 33 118 44 99 b 174 129 89 92 124 101 b 328 232 224 156 290 199 b 378 306 367 264 378 286 b 328 381 378 326 367 347 b 174 483 290 413 224 456 z "},"¼":{"ha":985,"x_min":0,"x_max":0,"o":"m 31 967 b 13 900 1 938 4 914 b 64 886 22 885 38 881 b 114 904 79 889 96 896 b 117 579 107 811 108 671 b 164 413 125 475 140 432 b 239 419 189 392 221 393 b 261 596 256 447 257 499 b 257 921 265 693 272 838 b 165 1035 243 1006 208 1033 b 31 967 122 1036 61 996 z m 631 1010 b 481 832 597 1015 557 979 b 232 258 404 686 294 428 b 165 -39 169 89 156 7 b 244 -57 175 -85 207 -96 b 401 239 282 -18 322 71 b 644 806 481 408 599 657 b 631 1010 690 954 664 1003 z m 769 529 b 661 449 749 529 722 515 b 481 175 597 381 494 256 b 629 47 467 96 543 61 b 739 42 665 43 703 42 b 788 -89 749 -36 765 -71 b 854 -81 811 -107 839 -106 b 874 58 868 -60 871 -18 b 925 100 919 71 926 86 b 904 133 925 117 917 131 b 876 133 897 136 889 135 b 868 365 879 213 881 307 b 815 447 857 417 836 439 b 821 496 825 471 825 483 b 772 529 813 514 794 528 b 769 529 771 529 771 529 z m 732 324 b 732 115 728 264 728 183 b 622 118 688 113 644 113 b 646 211 583 128 603 156 b 732 324 671 242 703 283 z "},"½":{"ha":978,"x_min":0,"x_max":0,"o":"m 31 967 b 13 900 1 938 4 914 b 64 886 22 885 38 881 b 114 904 79 889 96 896 b 117 579 107 811 108 671 b 164 413 125 475 140 432 b 239 419 189 392 221 393 b 261 596 256 447 257 499 b 257 921 265 693 272 838 b 165 1035 243 1006 208 1033 b 31 967 122 1036 61 996 z m 631 1010 b 481 832 597 1015 557 979 b 232 258 404 686 294 428 b 165 -39 169 89 156 7 b 244 -57 175 -85 207 -96 b 401 239 282 -18 322 71 b 644 806 481 408 599 657 b 631 1010 690 954 664 1003 z m 544 18 b 568 -65 536 -11 539 -49 b 707 -78 596 -82 649 -78 b 854 -69 764 -76 826 -79 b 868 -24 883 -60 878 -37 b 813 3 858 -10 844 -1 b 696 7 782 7 735 8 b 632 7 657 6 626 1 b 726 60 638 11 678 25 b 860 206 774 93 828 146 b 889 388 892 267 900 333 b 794 510 876 443 843 486 b 633 518 746 532 682 533 b 538 442 585 503 554 469 b 528 382 521 415 519 394 b 563 372 536 371 553 368 b 588 404 574 376 578 388 b 639 447 597 419 614 440 b 714 428 663 454 693 449 b 747 331 736 408 747 376 b 708 186 747 286 736 228 b 601 94 679 144 633 119 b 544 18 569 71 551 49 z "},"¾":{"ha":1061,"x_min":0,"x_max":0,"o":"m 131 1031 b 26 1017 75 1029 43 1028 b 22 971 11 1007 10 986 b 115 940 35 954 61 942 b 278 951 163 939 229 946 b 183 825 272 883 211 851 b 117 754 147 792 124 776 b 147 704 108 732 117 704 b 257 711 176 706 229 735 b 272 557 286 686 290 608 b 182 479 256 507 217 483 b 92 503 146 475 113 492 b 46 515 69 514 60 521 b 21 472 32 510 15 494 b 99 406 25 450 51 424 b 274 397 144 388 211 379 b 419 521 335 415 392 460 b 424 706 447 581 446 657 b 322 783 401 754 357 776 b 276 796 288 790 261 782 b 372 890 292 808 349 843 b 344 1019 397 938 392 1001 b 131 1031 279 1046 197 1033 z m 756 1010 b 606 832 722 1015 682 979 b 357 258 529 686 419 428 b 290 -39 294 89 281 7 b 369 -57 300 -85 332 -96 b 526 239 407 -18 447 71 b 769 806 606 408 724 657 b 756 1010 815 954 789 1003 z m 867 529 b 758 449 846 529 819 515 b 578 175 694 381 592 256 b 726 47 564 96 640 61 b 836 42 763 43 800 42 b 885 -89 846 -36 863 -71 b 951 -81 908 -107 936 -106 b 971 58 965 -60 968 -18 b 1022 100 1017 71 1024 86 b 1001 133 1022 117 1014 131 b 974 133 994 136 986 135 b 965 365 976 213 978 307 b 913 447 954 417 933 439 b 918 496 922 471 922 483 b 869 529 910 514 892 528 b 867 529 868 529 868 529 z m 829 324 b 829 115 825 264 825 183 b 719 118 785 113 742 113 b 743 211 681 128 700 156 b 829 324 768 242 800 283 z "},"¿":{"ha":689,"x_min":0,"x_max":0,"o":"m 599 292 b 488 313 576 335 519 340 b 410 181 457 283 451 219 b 215 75 367 142 288 125 b 44 -162 143 25 78 -58 b 42 -492 11 -265 11 -390 b 219 -714 72 -593 135 -672 b 493 -731 304 -756 414 -758 b 646 -592 572 -701 621 -642 b 654 -483 669 -543 668 -504 b 592 -464 639 -461 610 -457 b 556 -522 575 -472 571 -493 b 475 -601 540 -551 515 -589 b 344 -567 436 -614 382 -603 b 278 -394 306 -531 282 -472 b 344 -139 272 -317 288 -221 b 556 88 401 -57 500 13 b 599 292 611 164 622 247 z m 478 394 b 619 442 524 382 590 399 b 607 592 649 486 642 556 b 468 613 572 629 511 633 b 401 499 425 592 400 544 b 478 394 403 454 431 408 z "},"À":{"ha":740,"x_min":0,"x_max":0,"o":"m 386 1011 b 188 846 317 1010 244 953 b 29 181 93 665 44 344 b 61 1 15 17 36 8 b 138 11 88 -6 118 -11 b 196 251 157 35 167 85 b 217 375 201 288 210 331 b 254 374 228 375 240 375 b 419 371 301 371 364 368 b 469 169 436 294 453 224 b 565 11 503 53 529 22 b 675 46 601 1 646 14 b 696 314 704 79 718 133 b 521 933 675 494 619 800 b 386 1011 481 988 433 1013 z m 321 826 b 367 638 338 828 347 747 b 392 507 374 597 382 553 b 239 500 339 507 282 504 b 301 790 261 621 285 736 b 321 826 308 814 315 826 z m 369 1061 b 429 1093 414 1032 442 1044 b 331 1261 418 1140 367 1225 b 257 1274 296 1299 276 1288 b 243 1203 239 1261 221 1244 b 369 1061 264 1160 325 1090 z "},"Á":{"ha":740,"x_min":0,"x_max":0,"o":"m 386 1011 b 188 846 317 1010 244 953 b 29 181 93 665 44 344 b 61 1 15 17 36 8 b 138 11 88 -6 118 -11 b 196 251 157 35 167 85 b 217 375 201 288 210 331 b 254 374 228 375 240 375 b 419 371 301 371 364 368 b 469 169 436 294 453 224 b 565 11 503 53 529 22 b 675 46 601 1 646 14 b 696 314 704 79 718 133 b 521 933 675 494 619 800 b 386 1011 481 988 433 1013 z m 321 826 b 367 638 338 828 347 747 b 392 507 374 597 382 553 b 239 500 339 507 282 504 b 301 790 261 621 285 736 b 321 826 308 814 315 826 z m 363 1061 b 489 1203 407 1090 468 1160 b 475 1274 511 1244 493 1261 b 401 1261 456 1288 438 1299 b 303 1093 365 1225 314 1140 b 363 1061 290 1044 318 1032 z "},"Â":{"ha":740,"x_min":0,"x_max":0,"o":"m 386 1011 b 188 846 317 1010 244 953 b 29 181 93 665 44 344 b 61 1 15 17 36 8 b 138 11 88 -6 118 -11 b 196 251 157 35 167 85 b 217 375 201 288 210 331 b 254 374 228 375 240 375 b 419 371 301 371 364 368 b 469 169 436 294 453 224 b 565 11 503 53 529 22 b 675 46 601 1 646 14 b 696 314 704 79 718 133 b 521 933 675 494 619 800 b 386 1011 481 988 433 1013 z m 321 826 b 367 638 338 828 347 747 b 392 507 374 597 382 553 b 239 500 339 507 282 504 b 301 790 261 621 285 736 b 321 826 308 814 315 826 z m 364 1299 b 304 1256 339 1297 319 1276 b 221 1119 272 1214 243 1169 b 217 1058 214 1101 208 1078 b 257 1040 224 1040 243 1032 b 301 1092 276 1050 288 1074 b 367 1178 322 1121 346 1149 b 444 1074 392 1142 421 1110 b 486 1038 456 1057 468 1040 b 518 1069 501 1036 517 1050 b 501 1142 524 1094 513 1121 b 429 1257 482 1183 457 1221 b 372 1299 414 1276 394 1296 b 364 1299 369 1299 367 1299 z "},"Ã":{"ha":740,"x_min":0,"x_max":0,"o":"m 386 1011 b 188 846 317 1010 244 953 b 29 181 93 665 44 344 b 61 1 15 17 36 8 b 138 11 88 -6 118 -11 b 196 251 157 35 167 85 b 217 375 201 288 210 331 b 254 374 228 375 240 375 b 419 371 301 371 364 368 b 469 169 436 294 453 224 b 565 11 503 53 529 22 b 675 46 601 1 646 14 b 696 314 704 79 718 133 b 521 933 675 494 619 800 b 386 1011 481 988 433 1013 z m 321 826 b 367 638 338 828 347 747 b 392 507 374 597 382 553 b 239 500 339 507 282 504 b 301 790 261 621 285 736 b 321 826 308 814 315 826 z m 278 1240 b 185 1168 235 1239 196 1208 b 200 1122 181 1151 183 1131 b 238 1124 211 1115 226 1117 b 283 1158 254 1133 265 1151 b 310 1144 294 1160 301 1150 b 385 1097 332 1125 354 1104 b 514 1124 428 1085 479 1093 b 549 1203 536 1144 551 1174 b 519 1233 547 1218 536 1233 b 479 1207 503 1233 489 1219 b 431 1174 465 1193 451 1175 b 378 1197 410 1172 393 1185 b 301 1239 356 1217 332 1235 b 278 1240 294 1240 286 1240 z "},"Ä":{"ha":740,"x_min":0,"x_max":0,"o":"m 386 1011 b 188 846 317 1010 244 953 b 29 181 93 665 44 344 b 61 1 15 17 36 8 b 138 11 88 -6 118 -11 b 196 251 157 35 167 85 b 217 375 201 288 210 331 b 254 374 228 375 240 375 b 419 371 301 371 364 368 b 469 169 436 294 453 224 b 565 11 503 53 529 22 b 675 46 601 1 646 14 b 696 314 704 79 718 133 b 521 933 675 494 619 800 b 386 1011 481 988 433 1013 z m 321 826 b 367 638 338 828 347 747 b 392 507 374 597 382 553 b 239 500 339 507 282 504 b 301 790 261 621 285 736 b 321 826 308 814 315 826 z m 304 1243 b 207 1240 276 1261 235 1260 b 172 1150 178 1221 161 1183 b 257 1085 183 1115 221 1083 b 338 1154 293 1086 328 1118 b 304 1243 347 1189 333 1225 z m 526 1243 b 429 1240 499 1261 457 1260 b 394 1150 400 1221 383 1183 b 479 1085 406 1115 443 1083 b 560 1154 515 1086 550 1118 b 526 1243 569 1189 556 1225 z "},"Å":{"ha":740,"x_min":0,"x_max":0,"o":"m 386 1011 b 188 846 317 1010 244 953 b 29 181 93 665 44 344 b 61 1 15 17 36 8 b 138 11 88 -6 118 -11 b 196 251 157 35 167 85 b 217 375 201 288 210 331 b 254 374 228 375 240 375 b 419 371 301 371 364 368 b 469 169 436 294 453 224 b 565 11 503 53 529 22 b 675 46 601 1 646 14 b 696 314 704 79 718 133 b 521 933 675 494 619 800 b 386 1011 481 988 433 1013 z m 321 826 b 367 638 338 828 347 747 b 392 507 374 597 382 553 b 239 500 339 507 282 504 b 301 790 261 621 285 736 b 321 826 308 814 315 826 z m 367 1246 b 319 1236 350 1246 333 1243 b 274 1167 292 1224 276 1199 b 308 1076 271 1135 279 1096 b 417 1075 338 1057 386 1058 b 458 1158 447 1093 460 1126 b 415 1235 457 1190 443 1221 b 367 1246 401 1242 383 1246 z m 367 1192 b 386 1188 374 1192 381 1190 b 404 1156 397 1182 404 1169 b 386 1122 404 1143 400 1129 b 342 1122 374 1115 354 1114 b 328 1160 331 1131 326 1146 b 347 1188 329 1172 336 1183 b 367 1192 353 1190 360 1192 z "},"Æ":{"ha":942,"x_min":0,"x_max":0,"o":"m 321 826 b 339 789 328 826 333 814 b 358 688 344 764 351 731 b 367 638 361 672 364 656 b 392 507 374 597 382 553 b 239 500 336 507 285 504 b 301 790 263 629 283 726 b 321 826 308 814 315 826 z m 469 169 b 499 76 476 131 486 99 b 511 58 503 69 507 64 l 517 50 b 565 11 532 28 547 15 b 585 8 572 10 578 8 b 654 -3 606 1 628 -3 b 767 -1 690 -6 728 -6 b 869 18 806 3 840 8 b 957 89 924 39 953 63 b 932 143 961 113 953 131 b 858 149 910 153 885 156 b 825 135 847 146 836 142 b 786 119 813 129 800 124 b 742 118 771 115 757 115 b 707 133 728 119 717 125 b 696 314 710 172 706 232 b 683 413 693 346 688 378 l 683 440 b 806 450 731 439 771 442 b 854 483 829 458 846 469 b 864 524 863 497 865 511 b 847 554 863 536 857 547 b 793 569 838 561 819 567 b 686 574 763 574 726 575 b 688 674 688 610 688 643 b 685 796 688 725 686 767 b 675 871 683 825 679 850 b 671 890 674 878 672 885 b 779 890 706 889 742 889 b 874 899 815 890 847 893 b 933 932 903 907 924 918 b 944 972 943 946 946 960 b 924 1003 943 985 936 996 b 857 1018 911 1010 889 1015 b 771 1022 832 1021 803 1022 b 614 1015 714 1022 661 1019 b 496 974 547 1008 508 994 b 492 967 494 971 493 969 b 386 1011 458 997 424 1013 b 188 846 313 1008 247 953 b 79 508 140 750 104 638 b 29 181 53 379 36 269 b 25 85 26 140 25 108 b 31 33 25 61 26 44 b 44 10 35 21 39 14 b 61 1 49 6 54 3 b 101 -4 74 -3 88 -4 b 138 11 115 -4 128 1 b 164 78 147 21 156 43 b 196 251 171 113 182 169 l 196 256 b 217 375 203 293 210 332 b 254 374 228 375 240 375 b 419 371 306 371 361 369 b 469 169 436 292 453 225 z "},"Ç":{"ha":717,"x_min":0,"x_max":0,"o":"m 326 1 b 322 -42 325 -11 324 -25 b 325 -118 321 -71 321 -97 b 340 -157 328 -139 333 -151 b 363 -165 347 -164 354 -167 b 392 -154 372 -164 382 -160 l 411 -146 b 446 -137 422 -142 433 -139 b 476 -157 458 -137 468 -144 b 489 -215 483 -172 488 -192 b 476 -275 489 -239 485 -260 b 440 -299 467 -290 456 -297 b 396 -287 425 -300 411 -296 b 353 -253 379 -278 365 -265 b 328 -232 343 -243 335 -236 b 310 -235 319 -228 314 -229 b 310 -264 306 -240 306 -250 b 340 -311 315 -278 325 -293 b 396 -356 354 -329 372 -343 b 551 -353 444 -379 497 -378 b 617 -296 578 -340 599 -321 b 643 -217 635 -272 643 -246 b 617 -133 642 -187 633 -160 b 554 -79 599 -108 578 -90 b 497 -71 535 -72 515 -69 b 447 -81 479 -72 463 -76 b 428 -85 440 -82 433 -83 b 400 -81 414 -87 404 -86 b 388 -54 394 -76 390 -67 b 385 -28 386 -47 386 -37 b 382 -4 383 -19 383 -11 b 474 6 414 -4 444 -1 b 589 64 518 18 557 38 b 661 144 621 90 644 117 b 682 268 693 199 700 240 b 653 292 675 281 665 288 b 618 290 640 296 628 294 b 586 247 606 283 594 268 l 574 222 b 538 169 564 204 553 188 b 482 129 522 151 503 138 b 410 131 458 121 435 121 b 343 189 385 139 363 158 b 283 474 304 256 285 350 b 300 646 283 533 289 590 b 354 779 311 700 329 744 b 444 840 381 813 411 833 b 531 832 478 847 507 844 b 575 782 551 819 567 803 b 590 719 582 760 588 739 l 590 717 b 601 678 594 699 597 686 b 618 660 604 669 610 664 b 649 656 626 656 636 654 b 682 664 661 656 672 658 b 708 746 704 674 713 701 b 683 824 707 769 699 794 b 611 904 668 853 644 879 b 482 957 575 928 532 946 b 326 957 431 968 379 968 b 76 743 219 928 136 857 b 26 361 22 624 6 496 b 189 61 47 229 101 129 b 326 1 232 31 278 11 z "},"È":{"ha":538,"x_min":0,"x_max":0,"o":"m 368 1022 b 210 1015 314 1022 254 1019 b 93 974 140 1007 108 994 b 85 933 85 961 81 946 b 65 826 76 910 71 875 b 53 368 54 713 50 514 b 96 76 56 224 64 132 b 251 -3 126 21 181 3 b 467 18 322 -8 410 0 b 554 89 522 36 547 64 b 529 143 561 113 549 132 b 456 149 508 153 481 156 b 383 119 431 143 410 126 b 301 136 356 113 321 115 b 278 303 282 158 278 200 b 281 440 278 342 279 390 b 403 450 325 439 372 440 b 461 524 453 465 463 499 b 390 569 458 549 442 564 b 283 574 361 574 322 575 b 285 674 283 610 285 644 b 272 871 285 779 282 828 b 267 890 271 878 269 885 b 471 899 336 888 419 886 b 542 972 531 914 544 949 b 454 1018 539 997 519 1013 b 368 1022 431 1021 400 1022 z m 308 1061 b 368 1093 353 1032 381 1044 b 268 1261 356 1140 304 1225 b 196 1274 233 1299 214 1288 b 181 1203 176 1261 160 1244 b 308 1061 203 1160 264 1090 z "},"É":{"ha":538,"x_min":0,"x_max":0,"o":"m 368 1022 b 210 1015 314 1022 254 1019 b 93 974 140 1007 108 994 b 85 933 85 961 81 946 b 65 826 76 910 71 875 b 53 368 54 713 50 514 b 96 76 56 224 64 132 b 251 -3 126 21 181 3 b 467 18 322 -8 410 0 b 554 89 522 36 547 64 b 529 143 561 113 549 132 b 456 149 508 153 481 156 b 383 119 431 143 410 126 b 301 136 356 113 321 115 b 278 303 282 158 278 200 b 281 440 278 342 279 390 b 403 450 325 439 372 440 b 461 524 453 465 463 499 b 390 569 458 549 442 564 b 283 574 361 574 322 575 b 285 674 283 610 285 644 b 272 871 285 779 282 828 b 267 890 271 878 269 885 b 471 899 336 888 419 886 b 542 972 531 914 544 949 b 454 1018 539 997 519 1013 b 368 1022 431 1021 400 1022 z m 300 1061 b 428 1203 344 1090 406 1160 b 413 1274 449 1244 431 1261 b 339 1261 394 1288 375 1299 b 240 1093 304 1225 253 1140 b 300 1061 228 1044 256 1032 z "},"Ê":{"ha":538,"x_min":0,"x_max":0,"o":"m 368 1022 b 210 1015 314 1022 254 1019 b 93 974 140 1007 108 994 b 85 933 85 961 81 946 b 65 826 76 910 71 875 b 53 368 54 713 50 514 b 96 76 56 224 64 132 b 251 -3 126 21 181 3 b 467 18 322 -8 410 0 b 554 89 522 36 547 64 b 529 143 561 113 549 132 b 456 149 508 153 481 156 b 383 119 431 143 410 126 b 301 136 356 113 321 115 b 278 303 282 158 278 200 b 281 440 278 342 279 390 b 403 450 325 439 372 440 b 461 524 453 465 463 499 b 390 569 458 549 442 564 b 283 574 361 574 322 575 b 285 674 283 610 285 644 b 272 871 285 779 282 828 b 267 890 271 878 269 885 b 471 899 336 888 419 886 b 542 972 531 914 544 949 b 454 1018 539 997 519 1013 b 368 1022 431 1021 400 1022 z m 301 1299 b 242 1256 278 1297 258 1276 b 160 1119 210 1214 181 1169 b 154 1058 151 1101 147 1078 b 196 1040 161 1040 181 1032 b 239 1092 215 1050 226 1074 b 304 1178 260 1121 283 1149 b 382 1074 331 1142 358 1110 b 425 1038 393 1057 407 1040 b 457 1069 439 1036 454 1050 b 440 1142 461 1094 450 1121 b 367 1257 419 1183 394 1221 b 310 1299 351 1276 333 1296 b 301 1299 307 1299 304 1299 z "},"Ë":{"ha":538,"x_min":0,"x_max":0,"o":"m 368 1022 b 210 1015 314 1022 254 1019 b 93 974 140 1007 108 994 b 85 933 85 961 81 946 b 65 826 76 910 71 875 b 53 368 54 713 50 514 b 96 76 56 224 64 132 b 251 -3 126 21 181 3 b 467 18 322 -8 410 0 b 554 89 522 36 547 64 b 529 143 561 113 549 132 b 456 149 508 153 481 156 b 383 119 431 143 410 126 b 301 136 356 113 321 115 b 278 303 282 158 278 200 b 281 440 278 342 279 390 b 403 450 325 439 372 440 b 461 524 453 465 463 499 b 390 569 458 549 442 564 b 283 574 361 574 322 575 b 285 674 283 610 285 644 b 272 871 285 779 282 828 b 267 890 271 878 269 885 b 471 899 336 888 419 886 b 542 972 531 914 544 949 b 454 1018 539 997 519 1013 b 368 1022 431 1021 400 1022 z m 243 1243 b 144 1240 214 1261 174 1260 b 110 1150 115 1221 100 1183 b 196 1085 121 1115 158 1083 b 276 1154 232 1086 267 1118 b 243 1243 286 1189 271 1225 z m 465 1243 b 367 1240 436 1261 396 1260 b 332 1150 338 1221 322 1183 b 418 1085 343 1115 381 1083 b 499 1154 454 1086 489 1118 b 465 1243 508 1189 493 1225 z "},"Ì":{"ha":372,"x_min":0,"x_max":0,"o":"m 167 990 b 61 846 118 1000 79 985 b 60 279 43 706 46 443 b 142 17 75 115 101 49 b 268 29 183 -15 239 -12 b 308 306 297 71 301 151 b 301 815 315 458 325 685 b 167 990 276 946 217 981 z m 186 1061 b 246 1093 231 1032 258 1044 b 147 1261 233 1140 182 1225 b 74 1274 111 1299 92 1288 b 58 1203 56 1261 38 1244 b 186 1061 81 1160 142 1090 z "},"Í":{"ha":372,"x_min":0,"x_max":0,"o":"m 167 990 b 61 846 118 1000 79 985 b 60 279 43 706 46 443 b 142 17 75 115 101 49 b 268 29 183 -15 239 -12 b 308 306 297 71 301 151 b 301 815 315 458 325 685 b 167 990 276 946 217 981 z m 178 1061 b 306 1203 222 1090 283 1160 b 290 1274 328 1244 310 1261 b 218 1261 272 1288 253 1299 b 118 1093 182 1225 131 1140 b 178 1061 107 1044 133 1032 z "},"Î":{"ha":372,"x_min":0,"x_max":0,"o":"m 167 990 b 61 846 118 1000 79 985 b 60 279 43 706 46 443 b 142 17 75 115 101 49 b 268 29 183 -15 239 -12 b 308 306 297 71 301 151 b 301 815 315 458 325 685 b 167 990 276 946 217 981 z m 179 1299 b 119 1256 156 1297 136 1276 b 38 1119 88 1214 58 1169 b 32 1058 31 1101 25 1078 b 74 1040 39 1040 58 1032 b 118 1092 93 1050 104 1074 b 183 1178 139 1121 161 1149 b 261 1074 208 1142 236 1110 b 303 1038 272 1057 285 1040 b 335 1069 318 1036 333 1050 b 318 1142 339 1094 329 1121 b 246 1257 297 1183 272 1221 b 188 1299 229 1276 211 1296 b 179 1299 185 1299 182 1299 z "},"Ï":{"ha":372,"x_min":0,"x_max":0,"o":"m 167 990 b 61 846 118 1000 79 985 b 60 279 43 706 46 443 b 142 17 75 115 101 49 b 268 29 183 -15 239 -12 b 308 306 297 71 301 151 b 301 815 315 458 325 685 b 167 990 276 946 217 981 z m 121 1243 b 22 1240 93 1261 51 1260 b -11 1150 -6 1221 -22 1183 b 74 1085 -1 1115 38 1083 b 154 1154 110 1086 144 1118 b 121 1243 164 1189 149 1225 z m 343 1243 b 244 1240 315 1261 274 1260 b 211 1150 217 1221 200 1183 b 296 1085 221 1115 260 1083 b 376 1154 332 1086 367 1118 b 343 1243 386 1189 371 1225 z "},"Ð":{"ha":738,"x_min":0,"x_max":0,"o":"m 249 344 b 313 349 271 343 293 344 b 367 389 336 357 354 371 b 382 443 378 407 383 425 b 300 506 382 475 354 496 b 267 510 289 507 278 508 b 275 578 268 532 271 554 b 301 742 282 640 292 694 b 340 850 314 793 326 829 b 382 881 354 871 368 882 b 421 860 396 881 408 874 b 476 617 456 819 474 738 b 468 424 478 554 475 490 b 435 256 461 357 450 301 b 379 171 419 213 400 185 b 315 156 358 157 336 151 b 243 185 286 160 263 169 b 247 299 244 214 246 253 z m 22 490 b -31 454 -3 482 -19 469 b -42 410 -40 439 -43 425 b -21 375 -40 394 -33 383 b 28 364 -8 369 7 365 b 35 272 29 332 32 301 b 111 19 47 128 74 43 b 178 -3 132 3 154 -4 b 233 31 201 -1 219 10 l 239 42 b 363 -4 268 15 310 0 b 497 32 404 -6 449 6 b 624 164 546 57 588 101 b 697 401 658 231 683 310 b 706 660 710 492 713 578 b 653 854 696 738 679 803 b 554 974 626 906 593 944 b 414 1025 508 1008 463 1025 b 328 996 382 1025 353 1015 b 243 851 290 961 261 914 b 183 967 228 908 208 947 b 113 989 158 986 135 993 b 58 946 89 988 71 972 b 28 801 44 918 35 869 b 22 542 22 728 21 640 z "},"Ñ":{"ha":732,"x_min":0,"x_max":0,"o":"m 536 1008 b 446 854 493 1008 461 989 b 436 488 436 764 433 622 b 322 790 396 600 354 713 b 286 872 308 824 296 850 b 167 990 257 956 208 982 b 61 844 118 1000 79 983 b 60 279 43 706 46 443 b 143 17 75 115 101 49 b 268 29 183 -15 239 -12 b 308 304 299 71 301 151 b 314 449 310 349 313 397 b 438 132 356 329 400 208 b 553 7 490 25 529 8 b 626 39 582 6 610 11 b 664 322 653 81 656 161 b 664 858 671 485 685 728 b 540 1008 642 989 586 1007 b 536 1008 539 1008 538 1008 z m 274 1240 b 181 1168 231 1239 192 1208 b 194 1122 175 1151 179 1131 b 233 1124 207 1115 222 1117 b 279 1158 250 1133 261 1151 b 304 1144 290 1160 297 1150 b 379 1097 326 1125 350 1104 b 510 1124 424 1085 475 1093 b 544 1203 532 1144 547 1174 b 515 1233 543 1218 532 1233 b 474 1207 497 1233 485 1219 b 425 1174 461 1193 446 1175 b 374 1197 406 1172 389 1185 b 297 1239 351 1217 328 1235 b 274 1240 289 1240 282 1240 z "},"Ò":{"ha":769,"x_min":0,"x_max":0,"o":"m 25 510 b 378 0 25 228 183 0 b 731 510 572 0 731 228 b 378 1021 731 792 572 1021 b 25 510 183 1019 25 792 z m 435 871 b 576 510 518 871 582 708 b 415 150 571 311 499 150 b 274 511 332 150 268 311 b 435 871 279 711 351 871 z m 382 1061 b 442 1093 426 1032 453 1044 b 342 1261 429 1140 378 1225 b 269 1274 307 1299 288 1288 b 254 1203 250 1261 233 1244 b 382 1061 276 1160 338 1090 z "},"Ó":{"ha":769,"x_min":0,"x_max":0,"o":"m 25 510 b 378 0 25 228 183 0 b 731 510 572 0 731 228 b 378 1021 731 792 572 1021 b 25 510 183 1019 25 792 z m 435 871 b 576 510 518 871 582 708 b 415 150 571 311 499 150 b 274 511 332 150 268 311 b 435 871 279 711 351 871 z m 374 1061 b 501 1203 418 1090 479 1160 b 486 1274 522 1244 504 1261 b 413 1261 468 1288 449 1299 b 314 1093 378 1225 326 1140 b 374 1061 301 1044 329 1032 z "},"Ô":{"ha":769,"x_min":0,"x_max":0,"o":"m 25 510 b 378 0 25 228 183 0 b 731 510 572 0 731 228 b 378 1021 731 792 572 1021 b 25 510 183 1019 25 792 z m 435 871 b 576 510 518 871 582 708 b 415 150 571 311 499 150 b 274 511 332 150 268 311 b 435 871 279 711 351 871 z m 375 1299 b 315 1256 351 1297 332 1276 b 233 1119 283 1214 254 1169 b 228 1058 225 1101 221 1078 b 269 1040 235 1040 254 1032 b 313 1092 289 1050 300 1074 b 378 1178 333 1121 357 1149 b 456 1074 404 1142 432 1110 b 499 1038 467 1057 481 1040 b 531 1069 513 1036 528 1050 b 514 1142 535 1094 524 1121 b 440 1257 493 1183 468 1221 b 383 1299 425 1276 407 1296 b 375 1299 381 1299 378 1299 z "},"Õ":{"ha":769,"x_min":0,"x_max":0,"o":"m 25 510 b 378 0 25 228 183 0 b 731 510 572 0 731 228 b 378 1021 731 792 572 1021 b 25 510 183 1019 25 792 z m 435 871 b 576 510 518 871 582 708 b 415 150 571 311 499 150 b 274 511 332 150 268 311 b 435 871 279 711 351 871 z m 289 1240 b 196 1168 247 1239 207 1208 b 211 1122 192 1151 196 1131 b 249 1124 222 1115 238 1117 b 294 1158 267 1133 276 1151 b 321 1144 306 1160 313 1150 b 396 1097 343 1125 367 1104 b 525 1124 440 1085 492 1093 b 561 1203 547 1144 564 1174 b 531 1233 560 1218 547 1233 b 490 1207 514 1233 501 1219 b 442 1174 476 1193 463 1175 b 390 1197 421 1172 404 1185 b 314 1239 368 1217 343 1235 b 289 1240 306 1240 297 1240 z "},"Ö":{"ha":769,"x_min":0,"x_max":0,"o":"m 25 510 b 378 0 25 228 183 0 b 731 510 572 0 731 228 b 378 1021 731 792 572 1021 b 25 510 183 1019 25 792 z m 435 871 b 576 510 518 871 582 708 b 415 150 571 311 499 150 b 274 511 332 150 268 311 b 435 871 279 711 351 871 z m 317 1243 b 218 1240 288 1261 247 1260 b 183 1150 189 1221 174 1183 b 269 1085 194 1115 232 1083 b 350 1154 306 1086 340 1118 b 317 1243 360 1189 344 1225 z m 539 1243 b 440 1240 510 1261 469 1260 b 406 1150 411 1221 394 1183 b 492 1085 417 1115 454 1083 b 572 1154 528 1086 563 1118 b 539 1243 582 1189 567 1225 z "},"×":{"ha":689,"x_min":0,"x_max":0,"o":"m 517 674 b 467 682 504 686 488 690 b 329 569 432 669 390 622 b 300 596 319 579 310 588 b 147 678 233 651 185 678 b 100 614 111 678 86 650 b 213 476 113 579 161 538 b 122 388 175 446 142 417 b 119 254 83 331 96 276 b 243 286 144 232 182 240 b 317 347 265 303 290 324 b 394 269 343 315 369 288 b 528 267 451 231 506 243 b 496 390 550 292 542 329 b 433 465 479 414 457 439 b 449 482 439 471 443 476 b 531 635 504 549 531 597 b 517 674 531 651 525 665 z "},"Ø":{"ha":769,"x_min":0,"x_max":0,"o":"m 438 871 b 303 581 396 789 350 692 b 274 513 293 557 283 535 b 325 767 278 614 294 699 b 435 871 356 833 392 868 z m 565 667 b 576 510 574 619 578 568 b 525 254 572 408 556 322 b 415 150 493 185 457 150 b 349 188 390 150 368 163 b 358 210 351 194 356 201 l 361 215 b 517 553 410 318 463 431 b 565 667 533 592 550 631 z m 132 144 b 88 -106 90 13 75 -69 b 179 -126 103 -162 133 -169 b 269 24 201 -103 231 -53 b 378 0 304 8 340 0 b 628 150 475 0 558 50 b 731 510 696 249 731 369 b 638 857 731 644 700 761 b 642 871 639 861 640 867 b 669 1050 667 956 676 1015 b 626 1107 663 1085 647 1104 b 558 1071 608 1111 585 1100 b 501 989 542 1053 524 1025 b 378 1021 463 1008 422 1019 b 126 868 278 1017 194 967 b 25 510 58 769 25 650 b 129 150 25 369 60 249 z "},"Ù":{"ha":750,"x_min":0,"x_max":0,"o":"m 586 1019 b 568 1017 579 1019 574 1018 b 506 942 549 1010 526 990 b 494 910 503 933 499 924 b 494 910 494 910 494 910 b 474 822 489 888 482 860 b 353 228 442 665 397 353 b 258 314 308 101 264 163 b 282 840 253 465 286 707 b 196 1010 278 975 235 1001 b 101 971 158 1017 124 1006 b 57 758 78 938 67 879 b 53 324 46 638 36 451 b 181 69 69 194 113 121 b 413 132 250 19 343 -10 b 469 303 433 175 453 236 b 544 25 482 154 507 67 b 657 47 583 -18 635 -15 b 679 397 678 108 669 228 b 700 897 689 565 717 783 b 586 1019 686 993 625 1019 z m 379 1061 b 439 1093 422 1032 450 1044 b 339 1261 426 1140 375 1225 b 267 1274 304 1299 285 1288 b 251 1203 247 1261 229 1244 b 379 1061 274 1160 335 1090 z "},"Ú":{"ha":750,"x_min":0,"x_max":0,"o":"m 586 1019 b 568 1017 579 1019 574 1018 b 506 942 549 1010 526 990 b 494 910 503 933 499 924 b 494 910 494 910 494 910 b 474 822 489 888 482 860 b 353 228 442 665 397 353 b 258 314 308 101 264 163 b 282 840 253 465 286 707 b 196 1010 278 975 235 1001 b 101 971 158 1017 124 1006 b 57 758 78 938 67 879 b 53 324 46 638 36 451 b 181 69 69 194 113 121 b 413 132 250 19 343 -10 b 469 303 433 175 453 236 b 544 25 482 154 507 67 b 657 47 583 -18 635 -15 b 679 397 678 108 669 228 b 700 897 689 565 717 783 b 586 1019 686 993 625 1019 z m 371 1061 b 497 1203 415 1090 476 1160 b 483 1274 519 1244 501 1261 b 410 1261 465 1288 446 1299 b 311 1093 375 1225 322 1140 b 371 1061 299 1044 326 1032 z "},"Û":{"ha":750,"x_min":0,"x_max":0,"o":"m 586 1019 b 568 1017 579 1019 574 1018 b 506 942 549 1010 526 990 b 494 910 503 933 499 924 b 494 910 494 910 494 910 b 474 822 489 888 482 860 b 353 228 442 665 397 353 b 258 314 308 101 264 163 b 282 840 253 465 286 707 b 196 1010 278 975 235 1001 b 101 971 158 1017 124 1006 b 57 758 78 938 67 879 b 53 324 46 638 36 451 b 181 69 69 194 113 121 b 413 132 250 19 343 -10 b 469 303 433 175 453 236 b 544 25 482 154 507 67 b 657 47 583 -18 635 -15 b 679 397 678 108 669 228 b 700 897 689 565 717 783 b 586 1019 686 993 625 1019 z m 372 1299 b 313 1256 349 1297 328 1276 b 229 1119 281 1214 251 1169 b 225 1058 222 1101 217 1078 b 265 1040 232 1040 251 1032 b 310 1092 285 1050 297 1074 b 375 1178 331 1121 354 1149 b 453 1074 401 1142 429 1110 b 494 1038 464 1057 478 1040 b 526 1069 510 1036 525 1050 b 511 1142 532 1094 521 1121 b 438 1257 490 1183 465 1221 b 381 1299 422 1276 403 1296 b 372 1299 378 1299 375 1299 z "},"Ü":{"ha":750,"x_min":0,"x_max":0,"o":"m 586 1019 b 568 1017 579 1019 574 1018 b 506 942 549 1010 526 990 b 494 910 503 933 499 924 b 494 910 494 910 494 910 b 474 822 489 888 482 860 b 353 228 442 665 397 353 b 258 314 308 101 264 163 b 282 840 253 465 286 707 b 196 1010 278 975 235 1001 b 101 971 158 1017 124 1006 b 57 758 78 938 67 879 b 53 324 46 638 36 451 b 181 69 69 194 113 121 b 413 132 250 19 343 -10 b 469 303 433 175 453 236 b 544 25 482 154 507 67 b 657 47 583 -18 635 -15 b 679 397 678 108 669 228 b 700 897 689 565 717 783 b 586 1019 686 993 625 1019 z m 314 1243 b 215 1240 285 1261 244 1260 b 181 1150 186 1221 169 1183 b 265 1085 192 1115 229 1083 b 347 1154 303 1086 338 1118 b 314 1243 357 1189 342 1225 z m 535 1243 b 438 1240 507 1261 467 1260 b 403 1150 408 1221 392 1183 b 488 1085 414 1115 451 1083 b 569 1154 525 1086 560 1118 b 535 1243 579 1189 564 1225 z "},"Ý":{"ha":743,"x_min":0,"x_max":0,"o":"m 82 949 b 43 792 61 926 51 888 b 50 435 36 694 31 540 b 183 231 71 328 117 269 b 404 286 251 192 342 171 b 436 360 415 307 426 332 b 431 292 435 336 433 313 b 315 29 414 129 361 42 b 190 89 268 17 228 78 b 133 26 153 100 121 63 b 301 -46 147 -8 208 -40 b 603 119 396 -51 522 -32 b 703 721 683 271 717 553 b 569 961 689 890 625 946 b 497 950 543 969 522 961 b 436 831 482 943 458 931 b 343 356 408 706 382 456 b 243 428 304 256 256 307 b 253 846 232 550 260 742 b 165 978 246 951 207 975 b 82 949 124 982 100 968 z m 367 1061 b 494 1203 411 1090 472 1160 b 479 1274 517 1244 499 1261 b 407 1261 461 1288 442 1299 b 307 1093 371 1225 319 1140 b 367 1061 296 1044 324 1032 z "},"Þ":{"ha":756,"x_min":0,"x_max":0,"o":"m 169 1021 b 156 1019 165 1021 161 1021 b 65 810 107 1013 78 965 b 72 217 53 653 57 388 b 153 -65 88 47 113 -29 b 275 -51 193 -103 246 -99 b 308 133 296 -17 303 40 b 492 94 363 106 429 86 b 681 240 568 106 638 161 b 724 518 722 319 736 424 b 604 743 711 611 672 694 b 371 769 535 790 438 804 b 317 722 350 758 332 742 b 301 849 314 769 308 813 b 169 1021 275 981 217 1021 z m 424 686 b 474 653 442 686 460 672 b 521 433 508 607 526 528 b 440 203 517 339 489 228 b 313 244 401 181 349 217 b 314 265 313 251 313 258 b 317 360 314 294 315 326 b 361 614 328 446 340 553 b 424 686 378 668 401 688 z "},"ß":{"ha":729,"x_min":0,"x_max":0,"o":"m 21 167 b 32 61 21 136 24 89 b 79 19 40 32 56 25 b 156 135 103 15 136 14 b 213 654 176 254 182 494 b 339 911 242 814 296 892 b 407 838 381 931 411 892 b 329 656 403 782 364 710 b 253 543 296 601 267 565 b 282 510 239 519 242 511 b 440 458 321 507 400 511 b 464 222 482 406 486 296 b 361 104 443 150 394 113 b 294 140 329 97 313 118 b 242 182 278 161 260 183 b 197 122 222 182 203 157 b 263 18 193 88 201 42 b 518 28 322 -7 433 -8 b 686 229 603 64 661 138 b 654 490 710 319 700 426 b 463 576 608 553 526 574 b 376 571 400 578 357 563 b 531 678 397 578 482 611 b 556 908 579 744 590 844 b 346 1000 521 971 440 997 b 85 849 250 1003 142 983 b 21 338 28 715 24 468 b 21 167 19 208 19 197 z "},"à":{"ha":629,"x_min":0,"x_max":0,"o":"m 411 613 b 357 625 397 617 379 621 b 142 592 297 635 207 640 b 25 340 75 543 33 440 b 100 86 17 240 43 143 b 314 42 158 29 249 11 b 407 142 353 60 383 94 b 461 -1 419 67 436 22 b 550 14 492 -29 533 -28 b 568 236 568 54 561 133 b 581 540 575 338 596 461 b 476 654 564 619 511 651 b 411 613 440 657 424 644 z m 343 589 b 403 578 364 589 385 583 b 390 421 400 569 394 468 b 336 119 381 304 363 168 b 224 257 300 53 240 143 b 276 560 206 371 231 507 b 343 589 296 582 319 589 z m 308 742 b 368 774 353 713 381 725 b 269 942 357 821 306 906 b 196 954 235 979 215 968 b 182 883 178 942 160 925 b 308 742 203 840 264 771 z "},"á":{"ha":629,"x_min":0,"x_max":0,"o":"m 411 613 b 357 625 397 617 379 621 b 142 592 297 635 207 640 b 25 340 75 543 33 440 b 100 86 17 240 43 143 b 314 42 158 29 249 11 b 407 142 353 60 383 94 b 461 -1 419 67 436 22 b 550 14 492 -29 533 -28 b 568 236 568 54 561 133 b 581 540 575 338 596 461 b 476 654 564 619 511 651 b 411 613 440 657 424 644 z m 343 589 b 403 578 364 589 385 583 b 390 421 400 569 394 468 b 336 119 381 304 363 168 b 224 257 300 53 240 143 b 276 560 206 371 231 507 b 343 589 296 582 319 589 z m 301 742 b 428 883 346 771 407 840 b 414 954 450 925 432 942 b 340 942 394 968 376 979 b 242 774 304 906 253 821 b 301 742 229 725 257 713 z "},"â":{"ha":629,"x_min":0,"x_max":0,"o":"m 411 613 b 357 625 397 617 379 621 b 142 592 297 635 207 640 b 25 340 75 543 33 440 b 100 86 17 240 43 143 b 314 42 158 29 249 11 b 407 142 353 60 383 94 b 461 -1 419 67 436 22 b 550 14 492 -29 533 -28 b 568 236 568 54 561 133 b 581 540 575 338 596 461 b 476 654 564 619 511 651 b 411 613 440 657 424 644 z m 343 589 b 403 578 364 589 385 583 b 390 421 400 569 394 468 b 336 119 381 304 363 168 b 224 257 300 53 240 143 b 276 560 206 371 231 507 b 343 589 296 582 319 589 z m 303 979 b 243 936 278 978 258 957 b 160 800 211 894 182 850 b 156 739 153 782 147 758 b 196 721 163 721 182 713 b 240 772 215 731 226 754 b 306 858 261 801 285 829 b 383 754 331 822 360 790 b 425 718 394 738 407 721 b 457 750 440 717 456 731 b 440 822 463 775 451 801 b 368 938 421 864 394 901 b 311 979 353 957 333 976 b 303 979 308 979 306 979 z "},"ã":{"ha":629,"x_min":0,"x_max":0,"o":"m 411 613 b 357 625 397 617 379 621 b 142 592 297 635 207 640 b 25 340 75 543 33 440 b 100 86 17 240 43 143 b 314 42 158 29 249 11 b 407 142 353 60 383 94 b 461 -1 419 67 436 22 b 550 14 492 -29 533 -28 b 568 236 568 54 561 133 b 581 540 575 338 596 461 b 476 654 564 619 511 651 b 411 613 440 657 424 644 z m 343 589 b 403 578 364 589 385 583 b 390 421 400 569 394 468 b 336 119 381 304 363 168 b 224 257 300 53 240 143 b 276 560 206 371 231 507 b 343 589 296 582 319 589 z m 217 921 b 124 849 174 919 135 889 b 139 803 119 832 122 811 b 176 804 150 796 165 797 b 222 839 193 814 204 832 b 249 825 233 840 240 831 b 324 778 271 806 293 785 b 453 804 367 765 418 774 b 488 883 475 825 490 854 b 458 914 486 899 475 914 b 418 888 442 914 428 900 b 369 854 404 874 390 856 b 317 878 349 853 332 865 b 240 919 294 897 271 915 b 217 921 233 921 225 921 z "},"ä":{"ha":629,"x_min":0,"x_max":0,"o":"m 411 613 b 357 625 397 617 379 621 b 142 592 297 635 207 640 b 25 340 75 543 33 440 b 100 86 17 240 43 143 b 314 42 158 29 249 11 b 407 142 353 60 383 94 b 461 -1 419 67 436 22 b 550 14 492 -29 533 -28 b 568 236 568 54 561 133 b 581 540 575 338 596 461 b 476 654 564 619 511 651 b 411 613 440 657 424 644 z m 343 589 b 403 578 364 589 385 583 b 390 421 400 569 394 468 b 336 119 381 304 363 168 b 224 257 300 53 240 143 b 276 560 206 371 231 507 b 343 589 296 582 319 589 z m 243 924 b 146 921 215 942 174 940 b 111 831 117 901 100 864 b 196 765 122 796 160 764 b 276 835 232 767 267 799 b 243 924 286 869 272 906 z m 465 924 b 368 921 438 942 396 940 b 333 831 339 901 322 864 b 418 765 344 796 382 764 b 499 835 454 767 489 799 b 465 924 508 869 494 906 z "},"å":{"ha":629,"x_min":0,"x_max":0,"o":"m 411 613 b 357 625 397 617 379 621 b 142 592 297 635 207 640 b 25 340 75 543 33 440 b 100 86 17 240 43 143 b 314 42 158 29 249 11 b 407 142 353 60 383 94 b 461 -1 419 67 436 22 b 550 14 492 -29 533 -28 b 568 236 568 54 561 133 b 581 540 575 338 596 461 b 476 654 564 619 511 651 b 411 613 440 657 424 644 z m 343 589 b 403 578 364 589 385 583 b 390 421 400 569 394 468 b 336 119 381 304 363 168 b 224 257 300 53 240 143 b 276 560 206 371 231 507 b 343 589 296 582 319 589 z m 306 926 b 258 917 289 926 272 924 b 213 847 231 904 215 879 b 247 757 210 815 218 776 b 356 756 276 738 325 739 b 397 839 386 774 399 807 b 354 915 396 871 382 901 b 306 926 340 922 322 926 z m 306 872 b 325 868 313 872 319 871 b 343 836 336 863 343 850 b 325 803 343 824 339 810 b 281 803 313 796 293 794 b 267 840 269 811 265 826 b 286 868 268 853 275 864 b 306 872 292 871 299 872 z "},"æ":{"ha":949,"x_min":0,"x_max":0,"o":"m 343 589 b 403 578 364 588 385 585 b 400 556 401 575 401 568 b 397 511 399 543 399 528 b 390 421 396 476 393 447 b 369 246 386 361 379 303 b 336 119 360 189 349 146 b 272 121 317 89 296 89 b 224 257 249 151 233 197 b 226 432 215 317 217 375 b 276 560 236 489 253 531 b 343 589 297 581 319 590 z m 754 538 b 793 529 768 536 781 533 b 843 475 817 518 833 500 b 850 400 853 450 856 425 b 808 343 843 376 829 358 b 740 307 788 328 765 315 b 669 292 715 299 692 293 b 614 290 646 290 628 289 b 590 296 601 289 593 292 b 588 329 586 300 586 311 b 600 404 589 350 593 375 b 639 483 607 433 619 460 b 754 538 671 518 710 536 z m 557 43 b 610 24 574 35 592 28 b 750 7 658 11 706 6 b 908 65 836 17 889 36 b 910 100 917 79 917 90 b 875 115 903 110 890 114 b 826 104 860 114 844 111 b 763 90 806 97 785 92 b 647 140 717 92 679 108 b 597 250 622 172 606 208 b 724 256 640 250 682 251 b 843 290 765 258 806 269 b 925 408 885 311 913 350 b 917 511 929 440 926 474 b 853 607 906 549 885 581 b 696 657 810 639 758 656 b 589 638 658 657 624 650 b 546 615 574 631 560 624 b 536 626 543 619 539 622 b 476 654 515 644 494 653 b 411 613 442 658 421 644 b 357 625 397 617 379 621 b 253 631 326 631 292 632 b 142 592 213 628 176 615 b 63 485 108 565 82 531 b 25 340 42 439 29 392 b 100 86 18 233 43 149 b 204 31 131 57 165 39 b 314 42 243 22 279 26 b 407 142 353 60 383 93 b 461 -1 419 68 438 21 b 511 -19 478 -15 494 -21 b 550 14 528 -18 540 -7 b 557 43 553 22 556 32 z "},"ç":{"ha":567,"x_min":0,"x_max":0,"o":"m 251 -4 b 249 -42 250 -17 249 -28 b 250 -118 247 -71 247 -97 b 267 -157 254 -139 260 -151 b 288 -165 274 -164 281 -167 b 318 -154 297 -164 307 -160 b 338 -146 324 -151 331 -149 b 372 -137 349 -142 360 -139 b 403 -157 385 -137 394 -144 b 415 -215 410 -172 414 -192 b 403 -275 415 -239 411 -260 b 367 -299 393 -290 382 -297 b 321 -287 351 -300 336 -296 b 279 -253 306 -278 292 -265 b 254 -232 269 -243 261 -236 b 235 -235 244 -228 239 -229 b 236 -264 231 -240 232 -250 b 265 -311 240 -278 250 -293 b 321 -356 281 -329 299 -343 b 476 -353 369 -379 422 -378 b 543 -296 503 -340 525 -321 b 569 -217 560 -272 568 -246 b 543 -133 568 -187 560 -160 b 481 -79 525 -108 504 -90 b 424 -71 461 -72 442 -69 b 372 -81 404 -72 388 -76 b 354 -85 365 -82 360 -83 b 325 -81 340 -87 331 -86 b 314 -54 319 -76 315 -67 b 310 -28 313 -47 311 -37 b 308 -11 310 -22 308 -17 b 374 -4 329 -11 351 -10 b 518 92 443 17 492 49 b 533 176 542 129 546 158 b 511 193 528 185 521 190 b 485 192 501 194 492 194 b 460 163 475 188 467 178 b 450 144 457 157 454 151 b 422 108 443 132 435 121 b 379 81 410 96 396 86 b 325 82 363 75 344 75 b 274 121 306 88 289 100 b 228 318 244 168 229 233 b 240 436 228 358 232 399 b 282 529 249 474 263 506 b 351 571 303 551 325 565 b 417 565 378 575 399 574 b 451 531 433 557 444 546 b 463 488 457 515 461 500 l 464 486 b 471 460 465 474 468 465 b 485 447 474 453 478 449 b 508 443 492 444 499 443 b 533 450 518 443 526 446 b 554 506 551 457 558 475 b 535 560 553 521 546 539 b 479 615 524 579 506 597 b 379 651 451 632 418 644 b 261 651 340 658 301 658 b 69 503 179 632 115 582 b 31 240 28 421 15 333 b 156 33 47 150 89 81 b 251 -4 188 15 219 3 z "},"è":{"ha":569,"x_min":0,"x_max":0,"o":"m 317 657 b 211 638 281 657 244 651 b 31 410 121 603 53 518 b 104 99 10 303 35 174 b 371 7 172 24 286 4 b 529 65 456 11 513 39 b 496 115 547 92 526 115 b 383 90 465 115 426 92 b 268 140 342 89 297 110 b 218 250 240 169 229 210 b 344 256 261 250 303 251 b 465 290 386 260 426 269 b 546 408 503 313 538 347 b 474 607 554 469 538 557 b 317 657 435 639 376 657 z m 376 538 b 414 529 389 536 403 535 b 471 400 460 508 483 447 b 361 307 458 354 410 324 b 235 290 311 290 261 289 b 208 329 208 290 206 293 b 260 483 211 367 221 438 b 376 538 289 517 335 538 z m 290 742 b 350 774 333 713 361 725 b 250 942 338 821 286 906 b 178 954 215 979 196 968 b 163 883 158 942 140 925 b 290 742 185 840 246 771 z "},"é":{"ha":569,"x_min":0,"x_max":0,"o":"m 317 657 b 211 638 281 657 244 651 b 31 410 121 603 53 518 b 104 99 10 303 35 174 b 371 7 172 24 286 4 b 529 65 456 11 513 39 b 496 115 547 92 526 115 b 383 90 465 115 426 92 b 268 140 342 89 297 110 b 218 250 240 169 229 210 b 344 256 261 250 303 251 b 465 290 386 260 426 269 b 546 408 503 313 538 347 b 474 607 554 469 538 557 b 317 657 435 639 376 657 z m 376 538 b 414 529 389 536 403 535 b 471 400 460 508 483 447 b 361 307 458 354 410 324 b 235 290 311 290 261 289 b 208 329 208 290 206 293 b 260 483 211 367 221 438 b 376 538 289 517 335 538 z m 282 742 b 410 883 326 771 388 840 b 394 954 431 925 413 942 b 321 942 376 968 357 979 b 222 774 286 906 233 821 b 282 742 210 725 238 713 z "},"ê":{"ha":569,"x_min":0,"x_max":0,"o":"m 317 657 b 211 638 281 657 244 651 b 31 410 121 603 53 518 b 104 99 10 303 35 174 b 371 7 172 24 286 4 b 529 65 456 11 513 39 b 496 115 547 92 526 115 b 383 90 465 115 426 92 b 268 140 342 89 297 110 b 218 250 240 169 229 210 b 344 256 261 250 303 251 b 465 290 386 260 426 269 b 546 408 503 313 538 347 b 474 607 554 469 538 557 b 317 657 435 639 376 657 z m 376 538 b 414 529 389 536 403 535 b 471 400 460 508 483 447 b 361 307 458 354 410 324 b 235 290 311 290 261 289 b 208 329 208 290 206 293 b 260 483 211 367 221 438 b 376 538 289 517 335 538 z m 283 979 b 224 936 260 978 240 957 b 140 800 192 894 163 850 b 136 739 133 782 128 758 b 176 721 143 721 163 713 b 221 772 196 731 208 754 b 286 858 242 801 265 829 b 364 754 313 822 340 790 b 406 718 375 738 389 721 b 439 750 421 717 436 731 b 422 822 443 775 432 801 b 349 938 401 864 376 901 b 292 979 333 957 315 976 b 283 979 289 979 286 979 z "},"ë":{"ha":569,"x_min":0,"x_max":0,"o":"m 317 657 b 211 638 281 657 244 651 b 31 410 121 603 53 518 b 104 99 10 303 35 174 b 371 7 172 24 286 4 b 529 65 456 11 513 39 b 496 115 547 92 526 115 b 383 90 465 115 426 92 b 268 140 342 89 297 110 b 218 250 240 169 229 210 b 344 256 261 250 303 251 b 465 290 386 260 426 269 b 546 408 503 313 538 347 b 474 607 554 469 538 557 b 317 657 435 639 376 657 z m 376 538 b 414 529 389 536 403 535 b 471 400 460 508 483 447 b 361 307 458 354 410 324 b 235 290 311 290 261 289 b 208 329 208 290 206 293 b 260 483 211 367 221 438 b 376 538 289 517 335 538 z m 225 924 b 126 921 196 942 156 940 b 92 831 97 901 81 864 b 176 765 103 796 140 764 b 258 835 214 767 249 799 b 225 924 268 869 253 906 z m 447 924 b 349 921 418 942 378 940 b 314 831 319 901 303 864 b 399 765 325 796 363 764 b 481 835 436 767 471 799 b 447 924 490 869 475 906 z "},"ì":{"ha":283,"x_min":0,"x_max":0,"o":"m 50 474 b 50 175 36 388 39 271 b 111 -8 61 81 82 21 b 200 6 142 -37 183 -35 b 219 231 218 47 211 126 b 238 529 228 333 251 461 b 125 596 222 596 157 604 b 50 474 94 589 64 561 z m 146 742 b 206 774 189 713 217 725 b 106 942 193 821 142 906 b 33 954 71 979 51 968 b 18 883 14 942 -4 925 b 146 742 40 840 101 771 z "},"í":{"ha":283,"x_min":0,"x_max":0,"o":"m 50 474 b 50 175 36 388 39 271 b 111 -8 61 81 82 21 b 200 6 142 -37 183 -35 b 219 231 218 47 211 126 b 238 529 228 333 251 461 b 125 596 222 596 157 604 b 50 474 94 589 64 561 z m 138 742 b 264 883 182 771 243 840 b 250 954 286 925 268 942 b 176 942 232 968 213 979 b 78 774 142 906 89 821 b 138 742 65 725 93 713 z "},"î":{"ha":283,"x_min":0,"x_max":0,"o":"m 50 474 b 50 175 36 388 39 271 b 111 -8 61 81 82 21 b 200 6 142 -37 183 -35 b 219 231 218 47 211 126 b 238 529 228 333 251 461 b 125 596 222 596 157 604 b 50 474 94 589 64 561 z m 139 979 b 79 936 115 978 94 957 b -4 800 47 894 18 850 b -8 739 -11 782 -17 758 b 32 721 -1 721 18 713 b 76 772 51 731 64 754 b 142 858 97 801 121 829 b 219 754 168 822 196 790 b 261 718 231 738 244 721 b 293 750 276 717 292 731 b 278 822 299 775 288 801 b 204 938 257 864 232 901 b 147 979 189 957 171 976 b 139 979 144 979 142 979 z "},"ï":{"ha":283,"x_min":0,"x_max":0,"o":"m 50 474 b 50 175 36 388 39 271 b 111 -8 61 81 82 21 b 200 6 142 -37 183 -35 b 219 231 218 47 211 126 b 238 529 228 333 251 461 b 125 596 222 596 157 604 b 50 474 94 589 64 561 z m 81 924 b -18 921 51 942 11 940 b -53 831 -47 901 -64 864 b 32 765 -42 796 -4 764 b 114 835 69 767 104 799 b 81 924 124 869 108 906 z m 301 924 b 204 921 274 942 233 940 b 169 831 175 901 158 864 b 254 765 181 796 218 764 b 336 835 292 767 326 799 b 301 924 346 869 331 906 z "},"ð":{"ha":688,"x_min":0,"x_max":0,"o":"m 515 861 b 513 861 515 861 514 861 b 444 754 478 858 456 832 b 368 725 406 749 381 739 b 375 681 353 710 354 690 b 436 675 388 675 410 675 b 433 603 435 653 435 628 b 365 617 418 608 394 614 b 136 579 301 625 203 628 b 26 331 68 531 32 429 b 103 78 19 232 46 136 b 318 35 161 21 251 3 b 443 236 376 63 417 128 b 443 231 443 235 443 232 b 504 7 454 96 475 36 b 599 18 535 -22 576 -19 b 628 268 619 56 622 129 b 626 665 632 385 638 547 b 631 667 628 665 629 665 b 683 719 668 674 685 700 b 621 756 683 739 664 750 b 613 756 618 756 615 756 b 515 861 590 836 553 863 z m 354 583 b 431 567 382 583 411 572 b 346 125 410 425 386 200 b 228 249 303 44 243 135 b 286 554 211 364 239 500 b 354 583 306 576 331 583 z "},"ñ":{"ha":633,"x_min":0,"x_max":0,"o":"m 400 657 b 300 590 365 657 331 639 b 235 422 275 550 253 488 b 231 547 238 468 238 513 b 124 656 215 625 163 657 b 53 528 86 653 64 615 b 51 201 42 440 42 301 b 113 14 63 103 82 42 b 201 28 143 -15 183 -12 b 208 58 204 36 207 47 b 239 139 217 72 226 97 b 346 526 267 240 308 444 b 424 469 385 608 419 568 b 406 126 428 371 401 214 b 476 13 410 39 443 22 b 556 22 508 3 540 3 b 579 164 572 42 572 81 b 586 460 585 247 597 372 b 486 629 574 547 540 596 b 400 657 460 644 431 657 z m 229 921 b 136 849 188 919 147 889 b 151 803 132 832 135 811 b 189 804 163 796 178 797 b 235 839 206 814 217 832 b 261 825 246 840 253 831 b 336 778 283 806 306 785 b 465 804 379 765 431 774 b 500 883 488 825 503 854 b 471 914 499 899 488 914 b 431 888 454 914 440 900 b 382 854 417 874 403 856 b 331 878 361 853 344 865 b 254 919 307 897 283 915 b 229 921 246 921 238 921 z "},"ò":{"ha":592,"x_min":0,"x_max":0,"o":"m 25 333 b 294 0 25 150 146 0 b 564 333 443 0 564 150 b 294 667 564 518 443 667 b 25 333 146 667 25 518 z m 338 569 b 446 333 401 569 450 464 b 324 99 442 204 388 99 b 215 335 258 99 210 204 b 338 569 219 465 274 569 z m 299 742 b 358 774 343 713 369 725 b 258 942 346 821 294 906 b 186 954 224 979 204 968 b 171 883 167 942 149 925 b 299 742 193 840 254 771 z "},"ó":{"ha":592,"x_min":0,"x_max":0,"o":"m 25 333 b 294 0 25 150 146 0 b 564 333 443 0 564 150 b 294 667 564 518 443 667 b 25 333 146 667 25 518 z m 338 569 b 446 333 401 569 450 464 b 324 99 442 204 388 99 b 215 335 258 99 210 204 b 338 569 219 465 274 569 z m 290 742 b 418 883 335 771 396 840 b 403 954 439 925 421 942 b 329 942 385 968 365 979 b 231 774 294 906 243 821 b 290 742 218 725 246 713 z "},"ô":{"ha":592,"x_min":0,"x_max":0,"o":"m 25 333 b 294 0 25 150 146 0 b 564 333 443 0 564 150 b 294 667 564 518 443 667 b 25 333 146 667 25 518 z m 338 569 b 446 333 401 569 450 464 b 324 99 442 204 388 99 b 215 335 258 99 210 204 b 338 569 219 465 274 569 z m 292 979 b 232 936 268 978 249 957 b 149 800 200 894 171 850 b 144 739 142 782 136 758 b 186 721 151 721 171 713 b 229 772 204 731 217 754 b 294 858 250 801 274 829 b 372 754 321 822 349 790 b 414 718 383 738 397 721 b 447 750 429 717 444 731 b 431 822 451 775 440 801 b 357 938 410 864 385 901 b 300 979 342 957 324 976 b 292 979 297 979 294 979 z "},"õ":{"ha":592,"x_min":0,"x_max":0,"o":"m 25 333 b 294 0 25 150 146 0 b 564 333 443 0 564 150 b 294 667 564 518 443 667 b 25 333 146 667 25 518 z m 338 569 b 446 333 401 569 450 464 b 324 99 442 204 388 99 b 215 335 258 99 210 204 b 338 569 219 465 274 569 z m 206 921 b 113 849 164 919 124 889 b 128 803 108 832 113 811 b 165 804 139 796 154 797 b 211 839 182 814 193 832 b 238 825 222 840 229 831 b 313 778 260 806 283 785 b 442 804 357 765 407 774 b 478 883 464 825 479 854 b 447 914 475 899 464 914 b 407 888 431 914 418 900 b 358 854 393 874 379 856 b 307 878 338 853 321 865 b 231 919 285 897 260 915 b 206 921 222 921 214 921 z "},"ö":{"ha":592,"x_min":0,"x_max":0,"o":"m 25 333 b 294 0 25 150 146 0 b 564 333 443 0 564 150 b 294 667 564 518 443 667 b 25 333 146 667 25 518 z m 338 569 b 446 333 401 569 450 464 b 324 99 442 204 388 99 b 215 335 258 99 210 204 b 338 569 219 465 274 569 z m 233 924 b 135 921 204 942 164 940 b 100 831 106 901 89 864 b 185 765 111 796 149 764 b 267 835 222 767 257 799 b 233 924 276 869 261 906 z m 456 924 b 357 921 426 942 386 940 b 322 831 328 901 311 864 b 407 765 333 796 371 764 b 489 835 444 767 479 799 b 456 924 499 869 483 906 z "},"÷":{"ha":378,"x_min":0,"x_max":0,"o":"m 225 647 b 113 631 190 661 143 654 b 78 532 83 608 71 568 b 147 457 85 497 111 467 b 257 478 183 446 229 457 b 288 564 285 499 293 531 b 225 647 281 597 260 632 z m 225 160 b 113 144 190 174 143 167 b 78 46 83 121 71 81 b 147 -31 85 10 111 -21 b 257 -10 183 -42 229 -31 b 288 76 285 11 293 43 b 225 160 281 111 260 146 z "},"ø":{"ha":592,"x_min":0,"x_max":0,"o":"m 335 569 b 276 422 315 525 296 475 b 218 263 256 365 236 313 b 215 335 215 285 214 308 b 254 501 218 401 231 457 b 335 569 276 543 303 567 z m 438 439 b 446 333 444 408 447 372 b 407 167 443 267 431 211 b 324 99 383 121 356 99 b 303 103 317 99 310 100 b 314 132 306 111 310 122 b 317 136 315 133 315 135 b 422 400 350 215 385 304 b 438 439 428 413 432 426 z m 151 50 b 131 -117 129 -36 122 -92 b 192 -132 140 -160 160 -165 b 261 3 208 -112 232 -68 b 294 0 272 1 283 0 b 485 99 368 0 432 33 b 564 333 538 164 564 242 b 486 568 564 426 538 504 l 483 571 b 507 650 493 599 500 625 b 526 792 525 717 531 764 b 497 835 521 818 511 833 b 451 807 485 839 469 829 b 379 674 433 783 408 739 b 369 653 376 667 374 660 b 294 667 346 661 321 667 b 103 568 218 665 154 632 b 25 333 51 504 25 426 b 104 99 25 242 51 164 b 151 50 118 79 135 63 z "},"ù":{"ha":621,"x_min":0,"x_max":0,"o":"m 85 631 b 50 490 67 608 58 569 b 47 206 42 411 33 290 b 149 39 60 121 94 74 b 335 79 203 6 276 -14 b 393 224 357 115 376 167 b 394 199 393 215 394 207 b 456 10 406 99 425 39 b 544 24 486 -19 526 -17 b 561 246 561 65 554 144 b 574 546 568 346 589 468 b 467 654 558 624 506 657 b 389 525 432 653 410 619 b 288 143 367 431 326 225 b 210 200 250 61 214 101 b 228 544 206 299 232 457 b 156 661 225 633 192 658 b 85 631 121 665 100 649 z m 314 742 b 374 774 358 713 386 725 b 274 942 361 821 310 906 b 201 954 239 979 219 968 b 186 883 182 942 165 925 b 314 742 208 840 269 771 z "},"ú":{"ha":621,"x_min":0,"x_max":0,"o":"m 85 631 b 50 490 67 608 58 569 b 47 206 42 411 33 290 b 149 39 60 121 94 74 b 335 79 203 6 276 -14 b 393 224 357 115 376 167 b 394 199 393 215 394 207 b 456 10 406 99 425 39 b 544 24 486 -19 526 -17 b 561 246 561 65 554 144 b 574 546 568 346 589 468 b 467 654 558 624 506 657 b 389 525 432 653 410 619 b 288 143 367 431 326 225 b 210 200 250 61 214 101 b 228 544 206 299 232 457 b 156 661 225 633 192 658 b 85 631 121 665 100 649 z m 306 742 b 433 883 350 771 411 840 b 418 954 454 925 436 942 b 344 942 400 968 381 979 b 246 774 310 906 258 821 b 306 742 233 725 261 713 z "},"û":{"ha":621,"x_min":0,"x_max":0,"o":"m 85 631 b 50 490 67 608 58 569 b 47 206 42 411 33 290 b 149 39 60 121 94 74 b 335 79 203 6 276 -14 b 393 224 357 115 376 167 b 394 199 393 215 394 207 b 456 10 406 99 425 39 b 544 24 486 -19 526 -17 b 561 246 561 65 554 144 b 574 546 568 346 589 468 b 467 654 558 624 506 657 b 389 525 432 653 410 619 b 288 143 367 431 326 225 b 210 200 250 61 214 101 b 228 544 206 299 232 457 b 156 661 225 633 192 658 b 85 631 121 665 100 649 z m 307 979 b 247 936 283 978 264 957 b 165 800 215 894 186 850 b 160 739 157 782 153 758 b 201 721 167 721 186 713 b 244 772 221 731 232 754 b 310 858 265 801 289 829 b 388 754 336 822 364 790 b 431 718 399 738 413 721 b 463 750 444 717 460 731 b 446 822 467 775 456 801 b 372 938 425 864 400 901 b 315 979 357 957 339 976 b 307 979 313 979 310 979 z "},"ü":{"ha":621,"x_min":0,"x_max":0,"o":"m 85 631 b 50 490 67 608 58 569 b 47 206 42 411 33 290 b 149 39 60 121 94 74 b 335 79 203 6 276 -14 b 393 224 357 115 376 167 b 394 199 393 215 394 207 b 456 10 406 99 425 39 b 544 24 486 -19 526 -17 b 561 246 561 65 554 144 b 574 546 568 346 589 468 b 467 654 558 624 506 657 b 389 525 432 653 410 619 b 288 143 367 431 326 225 b 210 200 250 61 214 101 b 228 544 206 299 232 457 b 156 661 225 633 192 658 b 85 631 121 665 100 649 z m 249 924 b 150 921 219 942 179 940 b 115 831 121 901 106 864 b 201 765 126 796 164 764 b 282 835 238 767 272 799 b 249 924 292 869 276 906 z m 471 924 b 372 921 442 942 401 940 b 338 831 343 901 328 864 b 424 765 349 796 386 764 b 504 835 460 767 494 799 b 471 924 514 869 499 906 z "},"ý":{"ha":667,"x_min":0,"x_max":0,"o":"m 146 657 b 88 631 122 657 103 649 b 53 492 69 608 61 569 b 49 214 44 414 36 297 b 151 49 63 131 97 82 b 336 88 206 15 279 -4 b 403 256 363 128 385 189 b 410 153 406 219 408 185 b 393 -107 418 39 415 -31 b 275 -276 369 -183 325 -268 b 117 -200 224 -285 167 -218 b 42 -254 67 -183 26 -217 b 229 -344 58 -292 132 -333 b 525 -179 326 -357 449 -337 b 618 446 600 -19 631 279 b 503 650 606 614 551 649 b 444 631 482 651 461 646 b 422 604 439 629 431 622 b 404 554 415 590 408 574 b 399 535 401 547 400 542 b 290 151 369 433 328 232 b 213 208 251 69 217 110 b 231 546 208 306 235 460 b 163 656 228 633 193 650 b 146 657 157 657 151 657 z m 325 742 b 453 883 369 771 431 840 b 438 954 475 925 457 942 b 365 942 419 968 400 979 b 265 774 329 906 278 821 b 325 742 254 725 282 713 z "},"þ":{"ha":669,"x_min":0,"x_max":0,"o":"m 146 1033 b 135 1032 142 1033 138 1033 b 58 775 93 1024 68 965 b 64 51 47 585 51 260 b 132 -294 76 -157 97 -250 b 235 -276 165 -339 211 -335 b 267 68 257 -222 261 -119 b 444 29 318 40 383 19 b 617 163 514 39 578 89 b 657 417 656 235 669 331 b 547 622 646 503 610 578 b 333 647 483 667 394 679 b 272 589 308 635 289 614 b 257 822 271 676 265 758 b 146 1033 235 985 186 1032 z m 382 571 b 428 540 399 571 415 558 b 471 339 458 499 475 426 b 397 128 467 253 442 151 b 269 175 357 106 303 147 b 269 176 269 176 269 176 b 324 504 285 244 296 421 b 382 571 340 554 361 572 z "},"ÿ":{"ha":667,"x_min":0,"x_max":0,"o":"m 146 657 b 88 631 122 657 103 649 b 53 492 69 608 61 569 b 49 214 44 414 36 297 b 151 49 63 131 97 82 b 336 88 206 15 279 -4 b 403 256 363 128 385 189 b 410 153 406 219 408 185 b 393 -107 418 39 415 -31 b 275 -276 369 -183 325 -268 b 117 -200 224 -285 167 -218 b 42 -254 67 -183 26 -217 b 229 -344 58 -292 132 -333 b 525 -179 326 -357 449 -337 b 618 446 600 -19 631 279 b 503 650 606 614 551 649 b 444 631 482 651 461 646 b 422 604 439 629 431 622 b 404 554 415 590 408 574 b 399 535 401 547 400 542 b 290 151 369 433 328 232 b 213 208 251 69 217 110 b 231 546 208 306 235 460 b 163 656 228 633 193 650 b 146 657 157 657 151 657 z m 268 924 b 169 921 240 942 199 940 b 136 831 142 901 125 864 b 221 765 146 796 185 764 b 301 835 257 767 292 799 b 268 924 311 869 296 906 z m 490 924 b 392 921 463 942 421 940 b 358 831 364 901 347 864 b 443 765 368 796 407 764 b 524 835 479 767 514 799 b 490 924 533 869 518 906 z "},"ı":{"ha":283,"x_min":0,"x_max":0,"o":"m 50 474 b 50 175 36 388 39 271 b 111 -8 61 81 82 21 b 200 6 142 -37 183 -35 b 219 231 218 47 211 126 b 238 529 228 333 251 461 b 125 596 222 596 157 604 b 50 474 94 589 64 561 z "},"ˆ":{"ha":694,"x_min":0,"x_max":0,"o":"m 349 979 b 289 936 324 978 304 957 b 206 800 257 894 228 850 b 201 739 199 782 193 758 b 242 721 208 721 228 713 b 286 772 261 731 272 754 b 351 858 307 801 331 829 b 429 754 376 822 406 790 b 471 718 440 738 453 721 b 503 750 486 717 501 731 b 488 822 508 775 497 801 b 414 938 467 864 442 901 b 357 979 399 957 379 976 b 349 979 354 979 351 979 z "},"ˇ":{"ha":694,"x_min":0,"x_max":0,"o":"m 349 718 b 357 718 351 718 354 718 b 414 761 379 721 399 742 b 488 875 442 796 467 833 b 503 949 497 896 508 922 b 471 979 501 967 486 981 b 429 944 453 976 440 960 b 351 839 406 907 376 875 b 286 925 331 868 307 896 b 242 976 272 943 261 967 b 201 958 228 985 208 976 b 206 897 193 939 199 915 b 289 761 228 847 257 803 b 349 718 304 740 324 721 z "},"ˉ":{"ha":694,"x_min":0,"x_max":0,"o":"m 244 926 b 176 867 188 913 179 890 b 232 806 175 843 178 818 b 451 804 285 794 388 794 b 544 857 515 814 540 832 b 472 931 550 883 535 917 b 244 926 411 946 303 940 z "},"˘":{"ha":694,"x_min":0,"x_max":0,"o":"m 243 965 b 172 940 221 992 182 986 b 239 768 163 896 182 808 b 451 776 297 726 393 731 b 521 953 511 821 532 908 b 440 971 508 997 463 1000 b 396 856 418 943 419 885 b 296 857 372 826 322 828 b 243 965 269 885 265 940 z "},"˙":{"ha":694,"x_min":0,"x_max":0,"o":"m 401 924 b 303 921 372 942 332 940 b 268 831 274 901 258 864 b 354 765 279 796 317 764 b 435 835 390 767 425 799 b 401 924 444 869 429 906 z "},"˚":{"ha":694,"x_min":0,"x_max":0,"o":"m 356 926 b 307 917 338 926 321 924 b 263 847 279 904 265 879 b 296 757 258 815 268 776 b 404 756 325 738 374 739 b 447 839 435 774 447 807 b 403 915 446 871 431 901 b 356 926 389 922 372 926 z m 354 872 b 374 868 361 872 368 871 b 392 836 385 863 392 850 b 375 803 393 824 388 810 b 331 803 363 796 342 794 b 317 840 318 811 315 826 b 335 868 317 853 324 864 b 354 872 340 871 347 872 z "},"˛":{"ha":694,"x_min":0,"x_max":0,"o":"m 389 7 b 319 -211 361 -40 317 -140 b 424 -336 322 -282 371 -324 b 561 -297 476 -349 532 -333 b 589 -175 590 -260 594 -203 b 540 -169 583 -149 568 -153 b 447 -206 513 -186 471 -215 b 415 -100 422 -196 413 -147 b 431 22 418 -51 431 -4 b 389 7 431 49 418 56 z "},"˜":{"ha":694,"x_min":0,"x_max":0,"o":"m 279 921 b 186 849 238 919 197 889 b 201 803 182 832 186 811 b 239 804 213 796 228 797 b 285 839 257 814 267 832 b 311 825 296 840 303 831 b 386 778 333 806 357 785 b 515 804 431 765 482 774 b 551 883 538 825 554 854 b 521 914 550 899 538 914 b 481 888 504 914 492 900 b 432 854 467 874 453 856 b 381 878 411 853 394 865 b 304 919 358 897 333 915 b 279 921 296 921 288 921 z "},"˝":{"ha":694,"x_min":0,"x_max":0,"o":"m 217 742 b 344 883 261 771 322 840 b 329 954 365 926 349 942 b 256 942 311 968 292 979 b 157 774 221 906 169 822 b 217 742 144 725 172 713 z m 424 742 b 550 883 468 771 529 840 b 536 954 572 926 554 942 b 463 942 517 968 497 979 b 364 774 426 906 375 822 b 424 742 351 725 379 713 z "},"–":{"ha":728,"x_min":0,"x_max":0,"o":"m 689 326 b 558 390 688 360 649 381 b 225 390 468 400 326 400 b 31 338 124 382 61 365 b 46 260 1 311 3 275 b 274 244 89 244 171 250 b 579 233 376 238 500 219 b 689 326 657 247 692 293 z "},"—":{"ha":1389,"x_min":0,"x_max":0,"o":"m 1357 326 b 1100 390 1353 360 1276 381 b 443 390 922 400 643 400 b 60 338 242 382 118 365 b 90 260 0 311 6 275 b 539 244 174 244 336 250 b 1140 233 742 238 985 219 b 1357 326 1294 247 1363 293 z "},"‘":{"ha":235,"x_min":0,"x_max":0,"o":"m 115 717 b 179 738 139 717 163 724 b 210 824 206 757 217 793 b 150 890 204 854 182 881 b 106 892 136 894 121 894 b 124 979 104 944 124 967 b 68 971 124 997 86 994 b 22 793 24 914 17 825 b 115 717 31 747 68 717 z "},"’":{"ha":235,"x_min":0,"x_max":0,"o":"m 117 990 b 53 971 94 990 69 983 b 22 883 26 950 17 915 b 82 817 29 853 51 826 b 126 815 96 814 111 813 b 108 728 129 763 108 740 b 165 736 108 711 146 714 b 210 914 210 793 215 882 b 117 990 203 960 165 990 z "},"‚":{"ha":235,"x_min":0,"x_max":0,"o":"m 117 -26 b 53 -46 94 -26 69 -33 b 22 -133 26 -67 17 -101 b 82 -200 29 -164 51 -190 b 126 -201 96 -203 111 -204 b 108 -289 129 -254 108 -276 b 165 -281 108 -306 146 -303 b 210 -103 210 -224 215 -135 b 117 -26 203 -57 165 -26 z "},"“":{"ha":486,"x_min":0,"x_max":0,"o":"m 347 713 b 411 733 371 713 394 719 b 442 819 438 753 449 789 b 382 886 436 850 414 876 b 338 888 368 890 353 890 b 356 975 336 940 356 963 b 300 967 356 993 318 990 b 254 789 256 910 249 821 b 347 713 263 743 300 713 z m 143 717 b 207 738 167 717 190 724 b 238 824 233 757 244 793 b 178 890 232 854 210 881 b 133 892 164 894 149 894 b 151 979 132 944 151 967 b 96 971 151 997 114 994 b 50 793 51 914 44 825 b 143 717 58 747 96 717 z "},"”":{"ha":486,"x_min":0,"x_max":0,"o":"m 144 990 b 81 971 122 990 97 983 b 50 883 54 950 44 915 b 110 817 57 853 79 826 b 154 815 124 814 139 813 b 136 728 157 763 136 740 b 193 736 136 711 174 714 b 238 914 238 793 243 882 b 144 990 231 960 193 990 z m 349 986 b 285 967 326 986 301 979 b 254 879 258 946 249 911 b 314 813 261 849 283 822 b 358 811 328 810 343 808 b 340 724 361 758 340 736 b 397 732 340 707 378 710 b 442 910 442 789 447 878 b 349 986 435 956 397 986 z "},"„":{"ha":486,"x_min":0,"x_max":0,"o":"m 144 -18 b 81 -37 122 -18 97 -25 b 50 -125 54 -58 44 -93 b 110 -192 57 -156 79 -182 b 154 -193 124 -194 139 -196 b 136 -281 157 -246 136 -268 b 193 -272 136 -297 174 -294 b 238 -94 238 -215 243 -126 b 144 -18 231 -49 193 -18 z m 349 -22 b 285 -42 326 -22 301 -29 b 254 -129 258 -62 249 -97 b 314 -196 261 -160 283 -186 b 358 -197 328 -199 343 -200 b 340 -285 361 -250 340 -272 b 397 -276 340 -301 378 -299 b 442 -99 442 -219 447 -131 b 349 -22 435 -53 397 -22 z "},"†":{"ha":688,"x_min":0,"x_max":0,"o":"m 251 679 l 221 676 b 56 624 136 668 81 650 b 39 581 43 610 38 596 b 69 546 40 565 51 554 b 178 533 93 538 129 533 b 253 531 201 533 226 532 b 264 206 254 413 258 303 b 333 -140 278 8 301 -107 b 425 -122 369 -186 400 -179 b 453 257 443 -72 451 54 l 453 264 b 458 515 456 343 457 426 b 521 519 481 515 501 517 b 594 558 554 526 579 540 b 615 613 610 576 617 594 b 504 676 615 646 578 667 b 458 681 490 678 475 679 b 444 976 458 794 453 893 b 397 1151 433 1064 418 1122 b 336 1186 376 1181 356 1192 b 288 1126 317 1183 300 1164 b 260 928 275 1089 265 1022 b 251 679 256 854 253 772 z "},"‡":{"ha":688,"x_min":0,"x_max":0,"o":"m 251 679 l 221 676 b 56 624 136 668 81 650 b 39 581 43 610 38 596 b 69 546 40 565 51 554 b 178 533 93 538 129 533 b 253 531 201 533 226 532 b 256 415 253 492 254 453 b 221 413 243 415 232 414 b 56 360 136 404 81 386 b 39 317 43 346 38 332 b 69 282 40 301 51 290 b 178 269 93 274 129 269 b 261 267 203 269 231 268 l 264 206 b 333 -140 278 8 301 -107 b 425 -122 369 -186 400 -179 b 453 251 443 -72 451 51 b 521 256 476 251 500 253 b 594 294 554 263 579 276 b 615 349 610 313 617 331 b 504 413 615 382 578 403 b 457 417 489 414 474 415 b 458 515 457 449 458 482 b 521 519 481 515 501 517 b 594 558 554 526 579 540 b 615 613 610 576 617 594 b 504 676 615 646 578 667 b 458 681 490 678 475 679 b 444 976 458 794 453 893 b 397 1151 433 1064 418 1122 b 336 1186 376 1181 356 1192 b 288 1126 317 1183 300 1164 b 260 928 275 1089 265 1022 b 251 679 256 854 253 772 z "},"•":{"ha":694,"x_min":0,"x_max":0,"o":"m 449 658 b 225 628 379 686 283 674 b 156 431 165 581 142 501 b 292 279 169 360 219 300 b 511 321 364 258 457 279 b 572 494 567 364 583 426 b 449 658 560 561 517 631 z "},"…":{"ha":1389,"x_min":0,"x_max":0,"o":"m 225 160 b 113 144 190 174 142 167 b 78 46 82 121 71 81 b 146 -31 85 10 110 -21 b 257 -10 182 -42 229 -31 b 288 76 285 11 293 43 b 225 160 281 111 260 146 z m 688 160 b 575 144 653 174 604 167 b 540 46 544 121 533 81 b 608 -31 547 10 572 -21 b 719 -10 644 -42 692 -31 b 750 76 747 11 756 43 b 688 160 743 111 722 146 z m 1150 160 b 1038 144 1115 174 1067 167 b 1003 46 1007 121 996 81 b 1071 -31 1010 10 1035 -21 b 1182 -10 1107 -42 1154 -31 b 1213 76 1210 11 1218 43 b 1150 160 1206 111 1185 146 z "},"‹":{"ha":428,"x_min":0,"x_max":0,"o":"m 246 467 b 92 364 196 439 131 396 b 42 289 53 331 42 310 b 92 215 42 269 53 247 b 246 113 131 182 196 139 b 353 79 296 85 331 75 b 371 122 375 82 386 101 b 271 199 357 142 317 165 b 151 289 232 229 189 268 b 271 379 189 311 232 350 b 371 457 317 414 357 436 b 349 499 386 478 375 496 b 246 467 321 501 289 490 z "},"›":{"ha":428,"x_min":0,"x_max":0,"o":"m 174 467 b 71 499 131 490 99 501 b 49 457 44 496 33 478 b 149 379 64 436 103 414 b 268 289 188 350 231 311 b 149 199 231 268 188 229 b 49 122 103 165 64 142 b 67 79 33 101 44 82 b 174 113 89 75 124 85 b 328 215 224 139 290 182 b 378 289 367 247 378 269 b 328 364 378 310 367 331 b 174 467 290 396 224 439 z "},"⁄":{"ha":232,"x_min":0,"x_max":0,"o":""},"₣":{"ha":513,"x_min":0,"x_max":0,"o":"m 61 239 b 10 214 36 232 19 224 b -1 186 1 204 -3 196 b 18 163 0 176 6 168 b 68 156 31 158 47 157 b 90 46 74 104 81 67 b 126 4 100 24 111 10 b 221 14 158 -10 190 -7 b 274 118 247 38 264 72 b 278 143 275 126 276 135 b 310 146 289 143 300 144 b 358 172 332 151 349 160 b 371 207 368 183 372 194 b 299 247 371 228 347 242 b 285 249 294 247 290 249 b 286 319 286 269 286 293 b 283 449 285 357 285 400 b 421 458 338 447 383 450 b 475 494 447 467 465 479 b 486 538 485 510 488 524 b 467 571 485 551 479 563 b 406 588 454 578 435 583 b 281 590 371 592 329 592 b 279 697 279 631 279 665 b 285 813 279 749 281 786 b 303 867 288 839 293 857 b 396 886 324 885 356 892 b 435 882 408 885 422 883 b 506 878 461 878 485 876 b 551 913 532 881 547 892 b 553 944 554 922 554 932 b 532 976 550 956 543 967 b 418 1017 510 996 472 1010 b 343 1021 394 1019 369 1021 b 242 1013 308 1021 275 1018 b 158 988 211 1008 183 1000 b 97 926 133 975 113 954 b 54 629 68 874 54 775 b 56 386 53 553 54 472 b 61 239 57 331 58 282 z "},"₤":{"ha":688,"x_min":0,"x_max":0,"o":"m 104 569 b 53 543 81 563 63 554 b 42 511 43 533 40 522 b 63 486 43 500 50 492 b 138 476 79 479 104 476 b 165 388 149 446 158 417 b 53 350 107 381 69 368 b 42 318 43 340 40 329 b 63 292 43 307 50 299 b 142 283 81 286 107 283 b 178 282 153 283 165 283 b 169 217 178 258 175 238 b 129 117 158 179 144 146 b 122 104 126 113 124 108 b 97 42 107 78 99 57 b 132 10 94 25 106 14 b 290 11 169 6 222 6 b 433 15 342 15 389 17 b 529 6 472 14 504 10 b 608 8 564 -3 590 -1 b 639 61 625 19 635 38 b 613 125 642 85 633 107 b 517 151 589 140 557 150 b 396 144 475 153 435 151 b 304 122 357 138 326 129 b 269 115 283 115 271 113 b 279 133 269 118 272 124 b 304 175 286 143 294 157 b 324 236 314 192 319 213 b 324 269 324 247 325 258 b 394 272 350 269 374 269 b 447 303 418 279 436 289 b 463 342 458 315 464 329 b 381 388 463 365 435 381 b 307 393 358 390 335 392 b 288 465 301 415 294 440 b 394 467 328 463 363 463 b 447 496 418 472 436 482 b 463 535 458 508 464 522 b 381 581 463 558 435 574 b 281 586 351 585 318 586 l 249 586 b 218 710 236 628 226 668 b 222 843 207 764 208 808 b 317 908 243 879 274 901 b 426 893 360 915 396 911 b 468 842 446 879 460 863 b 485 778 475 821 481 799 b 497 735 489 761 493 747 b 533 703 506 714 518 704 b 579 719 549 701 564 707 b 619 769 596 731 610 747 b 622 854 629 792 629 819 b 567 964 614 890 596 926 b 456 1049 538 1001 501 1029 b 306 1058 408 1065 358 1068 b 164 992 251 1049 204 1026 b 74 693 88 918 57 819 b 104 569 82 651 92 611 z "},"₧":{"ha":1321,"x_min":0,"x_max":0,"o":"m 379 907 b 422 872 394 906 410 893 b 463 646 453 822 467 747 b 443 500 461 594 454 546 b 393 407 431 454 414 422 b 331 414 374 397 353 399 b 272 460 308 428 289 443 b 274 463 274 461 274 461 l 274 467 b 289 594 278 499 283 542 b 304 722 293 638 299 679 b 324 832 310 765 317 801 b 379 907 339 885 358 910 z m 629 536 b 658 533 639 535 649 535 b 671 235 658 424 663 324 b 697 67 678 158 688 103 b 735 -8 707 29 719 4 b 785 -26 751 -24 768 -29 b 824 6 801 -25 814 -14 b 836 165 833 33 838 86 b 838 281 836 199 836 238 b 839 360 838 306 838 332 b 842 529 840 414 842 471 b 875 533 854 531 865 532 b 864 475 868 515 865 496 b 943 297 861 415 888 356 b 1049 208 975 265 1011 236 b 1125 144 1081 185 1106 163 b 1151 94 1143 124 1153 107 b 1132 64 1150 81 1144 71 b 1094 53 1121 57 1108 53 b 1054 69 1079 53 1067 58 b 1019 128 1040 85 1029 104 b 1003 164 1014 142 1008 154 b 946 193 986 188 967 197 b 917 182 935 192 925 189 b 901 147 907 175 903 163 b 915 88 900 131 906 111 b 964 25 925 64 940 43 b 1047 -14 988 7 1015 -7 b 1143 -14 1079 -21 1111 -21 b 1276 100 1207 4 1251 43 b 1249 263 1300 154 1292 208 b 1143 350 1219 293 1185 322 b 1069 408 1117 369 1092 389 b 999 542 1015 460 992 504 b 1033 579 1004 558 1015 571 b 1088 588 1051 588 1069 590 b 1165 517 1124 578 1150 554 b 1178 481 1169 504 1174 493 b 1206 428 1185 457 1193 440 b 1243 422 1215 421 1228 418 b 1281 446 1258 425 1271 433 b 1296 497 1290 460 1296 476 b 1279 558 1296 518 1290 538 b 1146 650 1256 601 1211 632 b 950 625 1076 665 1011 657 b 936 615 946 622 940 618 b 921 621 932 617 926 619 b 839 633 899 628 871 632 b 821 779 838 692 831 740 b 754 861 804 835 782 863 b 681 763 725 860 700 828 b 663 636 672 728 667 685 l 642 636 b 639 732 643 667 643 699 b 535 964 628 833 593 910 b 407 1013 494 996 453 1011 b 333 993 381 1013 356 1006 b 249 861 294 964 267 921 b 194 956 233 908 215 940 b 132 974 172 971 151 978 b 81 929 111 971 93 956 b 54 788 68 903 58 856 b 49 532 49 715 47 631 b 60 267 50 433 53 346 b 129 17 72 124 94 40 b 186 -4 147 1 165 -6 b 235 31 206 -3 222 10 b 268 304 256 67 267 158 l 268 328 b 269 340 269 332 269 336 b 438 296 321 306 378 290 b 600 446 506 311 560 361 b 629 536 613 475 622 506 z "},"€":{"ha":714,"x_min":0,"x_max":0,"o":"m 301 310 b 343 313 317 310 331 311 b 400 340 369 318 388 328 b 417 375 413 353 418 364 b 329 417 417 397 388 411 b 286 421 315 418 301 419 b 283 476 285 439 283 457 b 336 479 303 476 319 478 b 393 506 363 483 381 493 b 410 542 406 518 411 529 b 322 583 410 563 381 576 b 288 586 311 585 300 585 b 300 672 290 615 294 644 b 354 813 311 729 329 776 b 444 876 381 847 411 868 b 531 868 478 883 507 881 b 575 815 551 856 567 838 b 590 751 582 792 588 771 b 592 747 590 750 590 749 b 601 708 594 729 597 717 b 618 689 606 699 611 693 b 649 683 626 685 636 683 b 683 693 661 683 672 686 b 710 778 704 703 714 732 b 683 860 707 801 699 829 b 611 943 668 889 644 917 b 482 999 576 969 533 988 b 326 997 431 1010 379 1010 b 76 775 219 968 136 894 b 22 572 47 710 29 642 b -31 549 -3 565 -19 558 b -43 519 -40 539 -44 529 b -19 496 -42 510 -35 501 b 18 490 -10 493 3 490 b 22 404 18 461 19 433 b -24 382 1 399 -14 390 b -36 354 -33 372 -37 364 b -12 331 -35 344 -28 336 b 38 324 0 326 17 325 b 189 64 64 213 114 125 b 331 1 232 32 279 11 b 475 7 382 -8 429 -6 b 589 67 519 19 557 40 b 661 150 621 93 644 121 b 682 279 693 207 700 250 b 653 304 675 292 665 300 b 618 303 640 308 628 307 b 586 258 606 296 596 281 b 574 232 582 250 578 242 b 538 176 564 214 553 194 b 482 135 522 157 503 143 b 411 136 460 126 436 126 b 343 197 386 146 364 165 b 301 310 325 229 313 267 z "},"№":{"ha":1140,"x_min":0,"x_max":0,"o":"m 536 1008 b 446 854 493 1008 461 989 b 436 488 436 764 433 622 b 322 790 396 600 354 713 b 286 872 308 824 296 850 b 167 990 257 956 208 982 b 61 844 118 1000 79 983 b 60 279 43 706 46 443 b 143 17 75 115 101 49 b 268 29 183 -15 239 -12 b 308 304 299 71 301 151 b 314 449 310 349 313 397 b 438 132 356 329 400 208 b 553 7 490 25 529 8 b 626 39 582 6 610 11 b 664 322 653 81 656 161 b 664 858 671 485 685 728 b 540 1008 642 989 586 1007 b 536 1008 539 1008 538 1008 z m 757 693 b 935 442 757 554 836 442 b 1113 693 1033 442 1113 554 b 935 944 1113 832 1033 944 b 757 693 836 944 757 832 z m 964 871 b 1035 693 1006 871 1038 792 b 953 515 1032 594 996 515 b 882 693 911 515 879 594 b 964 871 885 792 921 871 z m 1106 304 b 1039 367 1104 338 1085 357 b 871 368 994 378 922 376 b 774 315 819 360 789 342 b 781 238 758 289 760 251 b 896 221 803 222 844 228 b 1050 210 947 215 1010 196 b 1106 304 1089 225 1107 271 z "},"™":{"ha":722,"x_min":0,"x_max":0,"o":"m 149 1007 b 74 1003 121 1007 93 1006 b 29 968 36 996 26 979 b 85 946 31 956 43 949 b 124 944 96 944 110 944 b 124 942 124 943 124 943 b 122 715 115 886 117 782 b 156 611 129 650 139 624 b 206 617 172 599 194 600 b 222 726 218 632 219 665 b 219 931 225 788 229 878 b 215 946 218 936 217 942 b 240 947 224 946 233 947 b 315 967 286 951 306 957 b 311 996 325 976 324 989 b 228 1006 299 1003 275 1004 b 149 1007 204 1006 176 1007 z m 613 1004 b 608 1004 611 1004 610 1004 b 574 976 599 1006 588 1000 b 506 821 553 942 526 868 b 501 813 504 818 503 815 b 499 818 500 814 500 817 b 436 953 482 861 460 918 b 414 979 429 964 421 972 b 375 1000 401 993 388 999 b 328 942 353 1004 336 997 b 328 715 319 886 321 782 b 364 611 333 650 346 624 b 421 615 382 599 408 600 b 439 726 435 632 436 665 b 442 779 439 742 440 760 b 458 747 447 767 453 756 b 506 721 476 721 493 715 b 542 743 517 721 529 728 b 575 803 553 757 564 779 b 579 719 575 772 576 743 b 611 615 585 654 594 628 b 660 619 628 601 649 603 b 675 701 672 636 674 668 b 679 813 676 733 678 767 b 674 950 682 857 685 915 b 621 1004 664 986 640 1000 b 613 1004 618 1004 615 1004 z "},"∂":{"ha":689,"x_min":0,"x_max":0,"o":"m 385 819 b 350 714 353 819 336 783 b 394 569 358 674 376 624 b 139 479 328 575 207 565 b 149 135 69 389 57 218 b 535 138 240 51 435 56 b 600 515 633 219 638 379 b 429 801 564 650 488 763 b 385 819 413 814 399 819 z m 415 510 b 450 351 433 453 450 396 b 319 228 451 249 375 207 b 256 390 263 249 228 332 b 415 510 282 447 368 482 z "},"∆":{"ha":1158,"x_min":0,"x_max":0,"o":"m 514 819 b 413 729 483 819 454 789 b 151 236 333 614 208 383 b 250 -6 96 89 106 25 b 819 10 394 -36 674 -32 b 913 278 964 51 976 131 b 617 742 847 424 706 636 b 514 819 574 793 543 819 z m 526 608 b 576 569 540 607 556 594 b 724 338 621 517 692 410 b 676 203 756 264 750 224 b 393 196 604 182 465 181 b 343 317 319 211 315 243 b 474 564 372 390 433 506 b 526 608 494 594 510 610 z "},"∏":{"ha":957,"x_min":0,"x_max":0,"o":"m 469 942 b 304 933 407 942 347 940 b 203 871 217 921 199 892 b 328 832 207 850 235 838 b 372 829 340 831 356 831 b 365 631 368 783 367 719 b 371 128 363 478 358 253 b 433 -21 383 1 413 -26 b 472 161 454 -14 467 26 b 469 672 478 296 476 525 b 457 828 467 740 463 790 b 579 831 497 828 539 829 b 574 631 576 783 575 719 b 578 128 569 478 565 253 b 642 -21 590 1 619 -26 b 681 161 663 -14 675 26 b 678 672 686 296 683 525 b 664 833 674 743 669 796 b 678 835 669 833 674 835 b 846 869 779 842 825 853 b 838 922 868 886 865 910 b 650 939 810 935 754 936 b 469 942 597 940 532 942 z "},"∑":{"ha":818,"x_min":0,"x_max":0,"o":"m 365 983 b 118 944 274 983 175 969 b 106 769 26 904 44 835 b 324 610 168 704 274 643 b 306 496 375 576 369 572 b 83 182 243 421 124 274 b 201 36 44 90 85 53 b 606 50 319 19 513 24 b 604 150 699 78 692 129 b 268 164 515 171 347 160 b 261 264 189 168 200 188 b 469 553 321 340 431 474 b 408 692 507 632 474 656 b 201 806 344 726 249 774 b 236 853 156 838 160 854 b 540 851 314 851 465 829 b 511 968 614 874 613 940 b 365 983 472 979 421 983 z "},"−":{"ha":675,"x_min":0,"x_max":0,"o":"m 626 475 b 515 538 625 508 592 528 b 232 539 439 547 319 547 b 67 486 146 531 93 513 b 81 407 42 458 44 422 b 274 392 117 392 186 399 b 533 381 361 386 465 367 b 626 475 600 394 629 442 z "},"√":{"ha":688,"x_min":0,"x_max":0,"o":"m 646 1069 b 558 1060 615 1069 585 1067 b 432 810 497 1043 468 1003 b 314 119 396 617 353 269 b 207 57 275 -32 240 14 b 117 146 174 100 142 140 b 97 71 92 151 74 121 b 242 -69 121 21 186 -49 b 389 111 297 -90 344 -64 b 503 776 435 288 476 613 b 589 946 531 940 540 943 b 767 969 638 949 724 950 b 764 1049 810 989 811 1026 b 646 1069 736 1061 690 1069 z "},"∞":{"ha":688,"x_min":0,"x_max":0,"o":"m 218 589 b 186 586 207 589 196 589 b 111 558 158 582 133 572 b 44 446 69 529 47 488 b 96 331 43 406 58 363 b 165 297 115 315 139 303 b 249 296 192 290 221 289 b 342 347 289 304 319 325 b 358 368 349 354 354 361 b 371 356 363 364 367 360 b 478 314 397 333 433 315 b 556 329 506 313 532 318 b 608 375 579 342 597 357 b 628 433 621 394 628 414 b 628 438 628 435 628 436 b 617 492 629 456 625 474 b 564 551 607 514 589 535 b 472 578 539 568 507 578 b 403 560 446 576 422 569 b 356 524 383 550 368 538 b 271 581 336 547 308 569 b 218 589 253 586 236 589 z m 208 519 b 232 517 217 519 225 519 b 281 492 249 514 267 504 b 307 461 290 483 299 472 b 307 461 307 461 307 461 b 268 417 294 443 283 429 b 218 394 253 406 235 397 b 181 396 207 393 193 393 b 146 408 168 397 156 403 b 117 458 126 421 115 440 b 156 508 119 478 133 497 b 193 519 167 514 181 518 b 208 519 199 519 203 519 z m 489 481 b 521 471 499 481 511 478 b 546 444 531 465 540 456 b 551 421 550 438 551 429 b 551 418 551 419 551 419 b 543 393 551 408 549 400 b 522 376 538 386 531 381 b 494 371 514 372 504 371 b 450 389 481 372 464 379 b 417 428 438 399 426 413 b 439 457 424 439 431 449 b 464 474 447 464 456 471 b 489 481 472 478 481 481 z "},"∫":{"ha":765,"x_min":0,"x_max":0,"o":"m 615 1111 b 610 1111 614 1111 613 1111 b 425 907 550 1110 478 1082 b 300 228 372 731 339 408 b 175 10 261 49 217 11 b 61 63 133 8 96 43 b -21 51 25 81 -7 83 b 38 -76 -35 18 -29 -50 b 329 78 106 -103 236 -87 b 506 731 421 242 475 556 b 567 946 535 906 540 940 b 676 944 593 953 640 931 b 728 1050 713 960 739 1013 b 615 1111 717 1088 674 1113 z "},"≈":{"ha":922,"x_min":0,"x_max":0,"o":"m 24 364 b 57 286 13 319 32 292 b 144 332 81 282 110 300 b 268 392 179 364 219 408 b 454 256 317 374 375 296 b 707 236 533 215 633 213 b 860 354 782 258 832 307 b 883 475 888 401 893 447 b 815 488 874 503 849 513 b 693 372 783 463 743 404 b 528 369 644 342 585 339 b 347 499 471 401 415 467 b 136 499 279 531 197 529 b 24 364 75 468 35 408 z m 32 613 b 65 535 21 568 40 540 b 153 581 89 531 118 549 b 276 640 188 613 228 657 b 463 504 325 622 383 544 b 715 485 542 464 642 461 b 868 603 790 507 840 556 b 892 724 896 650 901 696 b 824 736 882 751 857 761 b 701 621 792 711 751 653 b 536 618 653 590 593 588 b 356 747 479 650 424 715 b 144 747 288 779 206 778 b 32 613 83 717 43 657 z "},"≤":{"ha":756,"x_min":0,"x_max":0,"o":"m 433 936 b 149 744 340 886 219 806 b 56 607 76 685 56 644 b 149 469 56 571 76 531 b 433 279 219 410 340 329 b 632 217 526 229 590 210 b 667 297 675 224 694 258 b 481 440 639 335 565 376 b 260 607 408 496 328 568 b 481 775 328 647 408 719 b 667 918 565 839 639 881 b 625 996 694 957 675 992 b 433 936 574 1000 515 979 z m 711 79 b 579 142 710 113 669 132 b 243 143 489 151 346 151 b 47 90 140 135 76 117 b 63 11 17 63 19 26 b 292 -4 106 -4 189 3 b 600 -15 396 -10 521 -29 b 711 79 679 -1 714 46 z "},"≥":{"ha":756,"x_min":0,"x_max":0,"o":"m 304 936 b 114 996 224 979 164 1000 b 71 918 64 992 43 957 b 257 775 99 881 174 839 b 479 607 331 719 410 647 b 257 440 410 568 331 496 b 71 297 174 376 99 335 b 106 217 43 258 64 224 b 304 279 147 210 211 229 b 590 469 397 329 518 410 b 682 607 661 531 682 571 b 590 744 682 644 661 685 b 304 936 518 806 397 886 z m 26 79 b 139 -15 25 46 58 -1 b 446 -4 218 -29 342 -10 b 676 11 550 3 633 -4 b 692 90 719 26 721 63 b 496 143 661 117 599 135 b 158 142 392 151 250 151 b 26 79 68 132 29 113 z "},"":{"ha":1490,"x_min":0,"x_max":0,"o":""},"":{"ha":1501,"x_min":0,"x_max":0,"o":""}}}
